<svg version="1.1" id="Logo_Final" xmlns="http://www.w3.org/2000/svg" xmlns:xlink="http://www.w3.org/1999/xlink" x="0px" y="0px" width="124px" height="48px" viewBox="31.5 34.5 124 48" enable-background="new 31.5 34.5 124 48" xml:space="preserve">
<g>
	<path fill="#FFFFFF" d="M145.932,73.979h5.189c0-0.763-0.24-1.373-0.676-1.831c-0.436-0.436-1.003-0.676-1.679-0.676
		c-0.741,0-1.373,0.218-1.875,0.676C146.39,72.605,146.084,73.216,145.932,73.979L145.932,73.979z M142.858,75.418
		c0-1.809,0.567-3.292,1.679-4.426c1.112-1.155,2.551-1.722,4.317-1.722c1.09,0,2.027,0.24,2.834,0.763
		c0.807,0.501,1.395,1.177,1.788,2.006c0.392,0.828,0.589,1.766,0.589,2.834c0,0.262-0.022,0.632-0.087,1.134h-8.11
		c0.087,0.981,0.458,1.744,1.134,2.289c0.654,0.545,1.461,0.828,2.398,0.828c1.177,0,2.311-0.436,3.357-1.286l1.155,2.093
		c-0.589,0.523-1.308,0.937-2.158,1.243c-0.85,0.305-1.7,0.458-2.551,0.458c-1.264,0-2.376-0.283-3.357-0.85
		c-0.981-0.567-1.722-1.308-2.224-2.246C143.119,77.576,142.858,76.551,142.858,75.418z"/>
	<path fill="#FFFFFF" d="M125.57,75.483c0,0.981,0.262,1.831,0.763,2.551c0.523,0.719,1.243,1.068,2.158,1.068
		c0.85,0,1.548-0.327,2.115-0.981c0.567-0.654,0.85-1.548,0.85-2.66c0-1.112-0.262-2.006-0.807-2.682
		c-0.545-0.676-1.243-1.025-2.093-1.025c-0.828,0-1.548,0.305-2.115,0.937C125.875,73.325,125.57,74.262,125.57,75.483
		L125.57,75.483z M122.735,81.304V64.931h2.921v5.08c0,0.174,0,0.349-0.022,0.501c-0.022,0.153-0.022,0.283-0.044,0.349
		l-0.022,0.131h0.044c0.349-0.523,0.85-0.937,1.482-1.264c0.654-0.327,1.352-0.48,2.071-0.48c1.591,0,2.856,0.567,3.815,1.7
		c0.959,1.134,1.417,2.616,1.417,4.447c0,1.853-0.501,3.336-1.526,4.469c-1.025,1.134-2.311,1.7-3.902,1.7
		c-0.698,0-1.373-0.153-2.028-0.48c-0.632-0.327-1.155-0.763-1.526-1.352h-0.044c0.022,0.218,0.044,0.48,0.044,0.785v0.763h-2.682
		V81.304z"/>
	<path fill="#FFFFFF" d="M112.402,77.816c0,0.414,0.153,0.785,0.48,1.09c0.305,0.305,0.741,0.458,1.308,0.458
		c0.763,0,1.417-0.327,1.918-0.981c0.501-0.654,0.763-1.373,0.763-2.137v-0.327h-0.501c-0.349,0-0.676,0.022-0.981,0.044
		c-0.305,0.022-0.654,0.065-1.046,0.153c-0.371,0.087-0.698,0.174-0.981,0.305c-0.262,0.131-0.501,0.305-0.676,0.545
		C112.489,77.227,112.402,77.489,112.402,77.816L112.402,77.816z M109.458,78.056c0-0.48,0.087-0.937,0.24-1.33
		c0.174-0.392,0.392-0.741,0.654-1.025s0.61-0.523,0.981-0.741c0.392-0.218,0.785-0.392,1.177-0.501
		c0.392-0.131,0.828-0.218,1.308-0.305s0.894-0.131,1.286-0.174c0.392-0.022,0.785-0.044,1.199-0.044h0.501v-0.174
		c0-0.719-0.196-1.243-0.61-1.57c-0.414-0.327-0.937-0.48-1.591-0.48c-1.09,0-2.158,0.371-3.27,1.112l-1.09-2.093
		c0.501-0.414,1.177-0.741,2.049-1.025c0.85-0.283,1.722-0.414,2.573-0.414c1.548,0,2.747,0.414,3.597,1.243
		c0.85,0.828,1.286,1.962,1.286,3.445v7.347h-2.725v-0.981c0-0.153,0-0.283,0.022-0.436c0.022-0.153,0.022-0.24,0.044-0.305
		l0.022-0.109h-0.022c-0.371,0.632-0.872,1.155-1.548,1.548c-0.676,0.392-1.395,0.589-2.18,0.589c-1.09,0-2.006-0.327-2.769-0.981
		C109.851,79.952,109.458,79.102,109.458,78.056z"/>
	<path fill="#FFFFFF" d="M101.37,81.304V69.531h2.812v2.071l-0.044,0.807h0.044c0.283-0.872,0.763-1.591,1.439-2.18
		c0.676-0.589,1.439-0.872,2.311-0.872c0.131,0,0.305,0.022,0.545,0.044v2.878c-0.153-0.022-0.392-0.044-0.719-0.044
		c-0.567,0-1.09,0.109-1.548,0.349s-0.828,0.567-1.09,0.959c-0.283,0.414-0.48,0.85-0.61,1.352
		c-0.131,0.501-0.218,1.046-0.218,1.613v4.753h-2.921V81.304z"/>
	<path fill="#FFFFFF" d="M89.009,75.439c0,1.068,0.327,1.962,1.003,2.638c0.676,0.676,1.504,1.025,2.464,1.025
		c0.981,0,1.809-0.349,2.485-1.025c0.676-0.676,1.025-1.57,1.025-2.638s-0.349-1.94-1.025-2.638
		c-0.676-0.698-1.504-1.046-2.485-1.046c-0.981,0-1.809,0.349-2.464,1.046C89.336,73.477,89.009,74.371,89.009,75.439L89.009,75.439
		z M86.044,75.439c0-1.177,0.283-2.224,0.872-3.183c0.567-0.937,1.352-1.679,2.333-2.202c0.981-0.523,2.049-0.785,3.227-0.785
		s2.267,0.262,3.248,0.785c0.981,0.523,1.766,1.264,2.355,2.202c0.589,0.937,0.872,2.006,0.872,3.183s-0.283,2.246-0.872,3.183
		c-0.589,0.937-1.352,1.679-2.333,2.202c-0.981,0.523-2.049,0.785-3.248,0.785c-1.177,0-2.267-0.262-3.248-0.785
		c-0.981-0.523-1.766-1.243-2.333-2.202C86.327,77.663,86.044,76.617,86.044,75.439z"/>
	<path fill="#FFFFFF" d="M65.725,81.304V69.531h2.812v1.373l-0.044,0.828h0.044c0.305-0.632,0.828-1.221,1.526-1.722
		c0.698-0.501,1.482-0.763,2.333-0.763c1.788,0,2.921,0.807,3.401,2.42h0.044c0.349-0.654,0.894-1.221,1.613-1.7
		c0.719-0.48,1.526-0.719,2.398-0.719c2.573,0,3.881,1.482,3.881,4.469v7.565h-2.921v-7.02c0-0.48-0.044-0.894-0.109-1.221
		c-0.087-0.327-0.24-0.589-0.48-0.807c-0.24-0.218-0.589-0.327-1.003-0.327c-0.632,0-1.199,0.196-1.657,0.61
		c-0.458,0.392-0.807,0.894-1.025,1.504s-0.327,1.264-0.327,1.962v5.276h-2.943v-7.02c0-0.283-0.022-0.545-0.044-0.741
		c-0.022-0.218-0.065-0.414-0.131-0.632s-0.153-0.392-0.262-0.523c-0.109-0.131-0.262-0.24-0.458-0.327s-0.436-0.131-0.698-0.131
		c-0.654,0-1.221,0.218-1.679,0.632c-0.48,0.414-0.807,0.916-1.025,1.526c-0.218,0.61-0.305,1.243-0.305,1.918v5.276h-2.943V81.304z
		"/>
	<path fill="#FFFFFF" d="M55.174,73.979h5.189c0-0.763-0.24-1.373-0.676-1.831c-0.436-0.436-1.003-0.676-1.679-0.676
		c-0.741,0-1.373,0.218-1.875,0.676C55.631,72.605,55.304,73.216,55.174,73.979L55.174,73.979z M52.1,75.418
		c0-1.809,0.567-3.292,1.679-4.426c1.112-1.155,2.551-1.722,4.317-1.722c1.09,0,2.028,0.24,2.834,0.763
		c0.807,0.501,1.395,1.177,1.788,2.006s0.589,1.766,0.589,2.834c0,0.262-0.022,0.632-0.087,1.134h-8.11
		c0.087,0.981,0.458,1.744,1.134,2.289c0.654,0.545,1.461,0.828,2.398,0.828c1.177,0,2.311-0.436,3.357-1.286l1.155,2.093
		c-0.589,0.523-1.308,0.937-2.158,1.243c-0.85,0.305-1.7,0.458-2.551,0.458c-1.264,0-2.376-0.283-3.357-0.85
		c-0.981-0.567-1.722-1.308-2.224-2.246C52.361,77.576,52.1,76.551,52.1,75.418z"/>
	<path fill="#FFFFFF" d="M146.564,67.329c-0.458-3.379-1.679-6.562-4.731-9.527c-2.267-2.202-5.145-3.772-8.35-4.404l-0.785-0.153
		l-0.349-0.719c-1.984-4.208-5.145-7.761-9.047-10.225c-3.772-2.398-8.263-3.772-13.059-3.772c-5.407,0-10.399,1.744-14.432,4.709
		c-4.142,3.052-7.303,7.369-8.873,12.383l-0.632,2.006l-1.744-1.134c-1.33-0.872-2.791-1.548-4.338-2.006
		c-1.504-0.436-3.096-0.676-4.753-0.676c-3.968,0-7.587,1.373-10.443,3.663c-3.009,2.42-5.428,5.995-5.69,9.898h-3.139
		c0.392-5.058,2.878-9.156,6.846-12.361c3.401-2.747,7.739-4.382,12.427-4.382c1.94,0,3.837,0.283,5.646,0.828
		c1.199,0.349,2.355,0.828,3.466,1.395c1.94-4.883,5.21-9.069,9.374-12.143c4.578-3.357,10.203-5.341,16.307-5.341
		c5.428,0,10.486,1.57,14.759,4.273c4.186,2.66,7.609,6.41,9.876,10.857c3.51,0.85,6.671,2.638,9.156,5.08
		c4.011,3.924,5.385,7.674,5.799,11.794h-3.292V67.329z"/>
	<path fill="#FFFFFF" d="M139.827,77.184c0,0.61,0.087,1.046,0.283,1.264c0.196,0.24,0.501,0.349,0.916,0.349
		c0.174,0,0.327,0,0.436-0.022v2.551c-0.414,0.044-0.719,0.065-0.916,0.065c-0.371,0-0.698-0.022-1.003-0.065
		c-0.305-0.044-0.632-0.153-0.959-0.305c-0.349-0.153-0.632-0.371-0.872-0.632c-0.24-0.262-0.414-0.632-0.567-1.112
		c-0.153-0.48-0.24-1.046-0.24-1.679V64.844h2.878L139.827,77.184z"/>
	<path fill="#FFFFFF" d="M32.936,81.304l1.352-16.373h3.161l3.227,8.088c0.109,0.283,0.24,0.632,0.371,1.025
		c0.131,0.414,0.24,0.741,0.327,0.981l0.131,0.392h0.044c0.283-0.959,0.545-1.766,0.807-2.398l3.227-8.11h3.161l1.33,16.373h-2.987
		l-0.85-9.113c0.087-0.327,0.131-0.698,0.131-1.112c0-0.087,0-0.174,0-0.24c0-0.305,0-0.567,0.022-0.785l0.022-0.392h-0.044
		c-0.349,1.046-0.654,1.897-0.894,2.529l-2.66,6.344h-2.616l-2.66-6.344c-0.109-0.283-0.24-0.632-0.371-1.046
		c-0.153-0.436-0.262-0.785-0.371-1.068l-0.153-0.436h-0.044c0.022,0.414,0.044,0.828,0.044,1.199c0,0.501,0.044,0.959,0.131,1.373
		l-0.85,9.135h-2.987V81.304z"/>
</g>
</svg>
