<?xml version="1.0" encoding="UTF-8"?>
<svg width="260px" height="160px" viewBox="0 0 260 160" version="1.1" xmlns="http://www.w3.org/2000/svg" xmlns:xlink="http://www.w3.org/1999/xlink">
    <title>costposter-step-2</title>
    <defs>
        <rect id="path-1" x="0.972873373" y="0" width="171" height="98" rx="10"></rect>
    </defs>
    <g id="Cases" stroke="none" stroke-width="1" fill="none" fill-rule="evenodd">
        <g id="Case---costposter" transform="translate(-590.000000, -3111.000000)">
            <g id="Group-8" transform="translate(200.000000, 2891.000000)">
                <g id="Group-17" transform="translate(355.000000, 180.000000)">
                    <g id="costposter-step-2" transform="translate(35.000000, 40.000000)">
                        <rect id="Rectangle" fill="#FFFFFF" opacity="0.01" x="0" y="0" width="260" height="160"></rect>
                        <g id="Pttrn" transform="translate(10.000000, 2.000000)" fill-rule="nonzero">
                            <path d="M87.6969496,97.8353789 C87.6774431,97.8353789 87.6611877,97.8353789 87.6433068,97.8353789 C86.8809287,97.8063128 86.2859812,97.1700888 86.315241,96.4111413 C86.3737604,94.8738689 85.8259535,93.4060321 84.7742294,92.2772995 C83.7208798,91.1501817 82.2887794,90.4945803 80.7396402,90.4380629 C79.2035053,90.3734716 77.7161366,90.9241123 76.5782589,91.9688762 C75.4436323,93.0152549 74.7836633,94.4378777 74.7267694,95.9751501 C74.6975097,96.7340976 74.0099064,97.2976565 73.2930435,97.294427 C72.5306654,97.2653609 71.9357179,96.6291368 71.9649776,95.8701893 C72.0511312,93.6014207 73.0215784,91.5005894 74.6991352,89.9552431 C76.3750665,88.4115116 78.5289064,87.623498 80.8436748,87.6929336 C83.1291834,87.7785171 85.2456359,88.7425419 86.7996517,90.4089968 C88.3552931,92.0754518 89.1631863,94.2424891 89.0770327,96.5128725 C89.0493985,97.2556722 88.4365701,97.8353789 87.6969496,97.8353789 Z" id="Path" fill="#42465A" opacity="0.100000001" transform="translate(80.523609, 92.762044) rotate(-330.000000) translate(-80.523609, -92.762044) "></path>
                            <path d="M28.9064525,27.538264 C28.7975413,27.538264 28.6870046,27.5366492 28.5764679,27.5334197 C27.8140899,27.5043536 27.2191424,26.8665147 27.2484021,26.109182 C27.2776618,25.3518493 27.9392564,24.7963643 28.682128,24.7899052 C30.2312672,24.8625704 31.7072571,24.3054706 32.8435093,23.2590919 C33.9797615,22.2127132 34.638105,20.7900903 34.6949989,19.2512032 C34.8136633,16.0765419 32.3135834,13.3976187 29.1193981,13.2781248 C28.3570201,13.2490587 27.7620726,12.6112199 27.7913323,11.8538871 C27.820592,11.114317 28.4334204,10.5329955 29.1714154,10.5329955 C29.1909219,10.5329955 29.2071773,10.5329955 29.2250582,10.5329955 C33.939123,10.7090068 37.6339744,14.6652225 37.4567906,19.3513196 C37.370637,21.6233178 36.4001899,23.7241491 34.722633,25.2694954 C33.1247276,26.738947 31.0716712,27.538264 28.9064525,27.538264 Z" id="Path" fill="#01060B" opacity="0.400000006" transform="translate(32.355137, 19.035630) rotate(-330.000000) translate(-32.355137, -19.035630) "></path>
                            <path d="M215.034056,23.8255767 L215.034056,13.678287 L223.881868,18.7519318 L215.034056,23.8255767 Z M216.659595,16.4734745 L216.659595,21.0287744 L220.630789,18.7503171 L216.659595,16.4734745 Z" id="Shape" fill="#01060B" transform="translate(219.457962, 18.751932) rotate(-330.000000) translate(-219.457962, -18.751932) "></path>
                            <path d="M156.532075,14.7860285 L151.423004,6 L161.63952,6 L156.532075,14.7860285 Z M154.240064,7.61478193 L156.532075,11.5580794 L158.824085,7.61478193 L154.240064,7.61478193 Z" id="Shape" fill="#01060B" transform="translate(156.531262, 10.393014) rotate(-330.000000) translate(-156.531262, -10.393014) "></path>
                            <path d="M199.109071,155.786028 L194,147 L204.216516,147 L199.109071,155.786028 Z M196.81706,148.614782 L199.109071,152.558079 L201.401082,148.614782 L196.81706,148.614782 Z" id="Shape-Copy" fill="#01060B" transform="translate(199.108258, 151.393014) rotate(-330.000000) translate(-199.108258, -151.393014) "></path>
                            <path d="M19.1090709,154.786028 L14,146 L24.2165162,146 L19.1090709,154.786028 Z M16.8170601,147.614782 L19.1090709,151.558079 L21.4010817,147.614782 L16.8170601,147.614782 Z" id="Shape-Copy-2" fill="#01060B" opacity="0.100000001" transform="translate(19.108258, 150.393014) rotate(-330.000000) translate(-19.108258, -150.393014) "></path>
                            <path d="M95.9667334,21.0415953 C95.2227051,21.0415953 94.4931113,20.7495957 93.9551014,20.214045 C93.2438786,19.5056515 92.9630637,18.4607383 93.2215709,17.4865335 C93.2766841,17.2744083 93.2176342,17.0544265 93.0641046,16.901225 C92.8817061,16.7192163 92.6428822,16.6995751 92.4788548,16.7427858 C91.5025638,17.0020499 90.4541007,16.7192163 89.7428779,16.0095133 C89.0303429,15.2971916 88.7469035,14.250969 89.0054107,13.279383 C89.0605239,13.0659484 89.0027863,12.8472761 88.8505689,12.6966933 C88.6655459,12.5120658 88.4227854,12.4950434 88.2574458,12.5382541 C87.2837792,12.79359 86.2379405,12.5133752 85.5267177,11.8036723 C84.8154949,11.0939693 84.5333678,10.0490562 84.7905627,9.07485138 C84.8469882,8.86534498 84.7866261,8.6401256 84.6344087,8.48823345 C84.4533224,8.30753418 84.2079374,8.28920237 84.0478467,8.33241307 C83.067619,8.587749 82.0230925,8.30491535 81.313182,7.59914065 C80.6019592,6.88681888 80.3211443,5.84190569 80.577027,4.86901033 C80.7344933,4.2732265 81.3499241,3.91968444 81.9404227,4.07681424 C82.5361702,4.23394404 82.8917816,4.84151262 82.7343153,5.43729645 C82.6910121,5.60228274 82.7067587,5.84452452 82.887845,6.0252238 C83.0413746,6.17711594 83.2618274,6.23603961 83.480968,6.17973477 C84.4520102,5.92570825 85.4978489,6.20592307 86.2103839,6.9143166 C86.9216067,7.62532895 87.2037338,8.67024214 86.9478511,9.6431375 C86.8901134,9.85788157 86.9491633,10.0778633 87.1026929,10.2310648 C87.2837792,10.4117641 87.5226031,10.4287865 87.6892549,10.3855758 C88.6655459,10.1302399 89.7166335,10.4130735 90.4252319,11.1227765 C91.1351424,11.8272418 91.4172695,12.8721549 91.1613868,13.8476691 C91.1180836,14.0126554 91.1351424,14.2548972 91.3201653,14.4382153 C91.4999394,14.6189146 91.7387632,14.635937 91.9054151,14.5927263 C92.8803939,14.3360809 93.9262326,14.6176052 94.6387676,15.3273081 C95.3499904,16.0343922 95.6334297,17.0793054 95.3762348,18.0548196 C95.3316193,18.2211153 95.3486782,18.4607383 95.5284522,18.6401281 C95.7108507,18.8221368 95.9562356,18.841778 96.1176386,18.7972579 C96.7107617,18.642747 97.323568,18.9936702 97.4810343,19.5881446 C97.6385006,20.182619 97.2842014,20.791497 96.6884539,20.9486268 C96.4522545,21.0114787 96.2094939,21.0415953 95.9667334,21.0415953 Z" id="Path" fill="#FF8002" opacity="0.100000001" transform="translate(89.001229, 12.540553) rotate(-330.000000) translate(-89.001229, -12.540553) "></path>
                            <path d="M95.1206923,61.4632304 C95.0117315,61.4632304 94.9011444,61.4616156 94.7905574,61.4583861 C90.0710921,61.2807601 86.3745571,57.3245443 86.5534479,52.6384472 C86.582721,51.8988771 87.1958286,51.3175556 87.9341599,51.3175556 C87.9536752,51.3175556 87.969938,51.3175556 87.9878271,51.3175556 C88.7505525,51.3466216 89.3457711,51.9844605 89.3164981,52.7401784 C89.1961533,55.9148397 91.6989986,58.5937629 94.8962656,58.7132568 C96.4493632,58.7762333 97.9227731,58.2288222 99.059543,57.1808287 C100.194687,56.1344501 100.854956,54.7118272 100.911876,53.1745548 C100.941149,52.4349847 101.554257,51.8536632 102.292588,51.8536632 C102.312104,51.8536632 102.328366,51.8536632 102.346255,51.8536632 C103.108981,51.8827292 103.704199,52.5205681 103.674926,53.2779008 C103.588733,55.5482842 102.617844,57.6491155 100.939523,59.192847 C99.3408895,60.6655282 97.2868975,61.4632304 95.1206923,61.4632304 Z" id="Path" fill="#01060B" opacity="0.5" transform="translate(95.111590, 56.390393) rotate(-45.000000) translate(-95.111590, -56.390393) "></path>
                            <path d="M8.11678784,63.8530754 L8.11678784,53.7057857 L16.9686312,58.7794305 L8.11678784,63.8530754 Z M9.74306808,56.5009732 L9.74306808,61.0562731 L13.7160707,58.7778158 L9.74306808,56.5009732 Z" id="Shape" fill="#01060B" transform="translate(12.542710, 58.779431) rotate(-45.000000) translate(-12.542710, -58.779431) "></path>
                            <path d="M30.1381929,110.546469 C29.6446547,110.546469 29.1931198,110.216507 29.060547,109.717635 C28.8032771,108.743459 29.0867991,107.695959 29.7982291,106.986277 C30.5057214,106.279215 31.5544901,105.999008 32.5297531,106.254337 C32.7423945,106.313258 32.9629116,106.253027 33.1191112,106.097211 C33.3002502,105.916518 33.317314,105.675593 33.2739982,105.510611 C33.0180409,104.535127 33.3015628,103.490245 34.0116803,102.783182 C34.7217977,102.073501 35.771879,101.790676 36.747142,102.048623 C36.9637213,102.104926 37.1803005,102.046004 37.3351875,101.891498 C37.5163265,101.710804 37.5333904,101.469879 37.4900745,101.304897 C37.2354298,100.330722 37.5176391,99.2858405 38.2277566,98.5774684 C38.9378741,97.8677869 39.9840176,97.5862712 40.9619057,97.8415994 C41.1797976,97.9005213 41.3963769,97.84029 41.5499513,97.6857837 C41.7324029,97.5037805 41.7494667,97.2628554 41.7061509,97.0978741 C41.4515061,96.1223894 41.7337155,95.0788172 42.443833,94.3704451 C43.1539504,93.662073 44.2014065,93.3818667 45.1766695,93.6371949 C45.7725906,93.7943199 46.1296182,94.4018701 45.9721061,94.9976359 C45.8145939,95.5920924 45.1976711,95.9469331 44.6096256,95.7911175 C44.3969841,95.7335049 44.1751545,95.7911175 44.0202675,95.9469331 C43.8391285,96.1263176 43.8220646,96.368552 43.8653805,96.5348427 C44.1213378,97.5077087 43.8378159,98.5525902 43.1276984,99.2609624 C42.4162683,99.9719532 41.3688122,100.256088 40.3909241,99.995522 C40.1795952,99.9418376 39.9590781,99.9981407 39.8041911,100.152647 C39.6230521,100.333341 39.6059883,100.575575 39.6493041,100.741866 C39.9052615,101.714732 39.6217395,102.759614 38.911622,103.467986 C38.200192,104.178976 37.1487981,104.459183 36.1774729,104.202545 C36.0120851,104.159336 35.7692538,104.176358 35.5894274,104.358361 C35.4069758,104.540364 35.389912,104.781289 35.4332278,104.94758 C35.6891851,105.920446 35.4069758,106.965327 34.6955457,107.6737 C33.9841156,108.383381 32.9405974,108.664897 31.960084,108.408259 C31.7999466,108.36505 31.5544901,108.380762 31.3746637,108.561456 C31.192212,108.743459 31.1738356,108.984384 31.2184641,109.149366 C31.3746637,109.743822 31.0202612,110.352682 30.4243401,110.509807 C30.3285202,110.534685 30.2327003,110.546469 30.1381929,110.546469 Z" id="Path" fill="#01060B" opacity="0.400000006" transform="translate(37.488250, 102.045427) rotate(-45.000000) translate(-37.488250, -102.045427) "></path>
                            <path d="M13.5007695,123.467985 C13.4828804,123.467985 13.4649913,123.467985 13.4471023,123.467985 C11.1621785,123.382402 9.04638792,122.418377 7.49003772,120.751922 C5.93531381,119.087082 5.12542625,116.91843 5.2116191,114.648046 C5.29781195,112.377663 6.26870126,110.276832 7.94702247,108.731485 C9.62534369,107.186139 11.7817913,106.386822 14.0943618,106.469176 C14.8570872,106.498242 15.4523058,107.136081 15.4230328,107.893413 C15.3921334,108.650746 14.7497527,109.225609 13.9886536,109.21269 C12.4599502,109.144869 10.9637723,109.69874 9.82537616,110.745118 C8.69023255,111.791497 8.02996277,113.21412 7.97304296,114.751392 C7.91449687,116.288665 8.46255331,117.756501 9.51475663,118.885234 C10.5685862,120.013967 12.0013391,120.666339 13.5495579,120.724471 C14.3122834,120.753537 14.9075019,121.391376 14.8782289,122.148708 C14.8522084,122.886664 14.2391007,123.467985 13.5007695,123.467985 Z" id="Path" fill="#FF8002" transform="translate(10.314726, 114.965689) rotate(-225.000000) translate(-10.314726, -114.965689) "></path>
                            <path d="M165.678457,54.2823869 C165.658941,54.2823869 165.642679,54.2823869 165.62479,54.2823869 C164.862064,54.2533208 164.266846,53.6170967 164.296119,52.8581492 C164.354665,51.3208768 163.806608,49.8530401 162.754405,48.7243075 C161.700575,47.5971897 160.267822,46.9415882 158.717977,46.8850709 C157.181143,46.8204796 155.693096,47.3711202 154.5547,48.4158841 C153.419556,49.4622628 152.759287,50.8848857 152.702367,52.4221581 C152.673094,53.1811056 151.985177,53.7446645 151.267988,53.7414349 C150.505262,53.7123689 149.910044,53.0761448 149.939317,52.3171973 C150.025509,50.0484287 150.996399,47.9475974 152.67472,46.4022511 C154.351415,44.8585196 156.506236,44.070506 158.822059,44.1399416 C161.108609,44.225525 163.226026,45.1895499 164.78075,46.8560048 C166.3371,48.5224598 167.145362,50.6894971 167.059169,52.9598805 C167.031522,53.7026802 166.418414,54.2823869 165.678457,54.2823869 Z" id="Path" fill="#01060B" opacity="0.400000006" transform="translate(158.501848, 49.209052) rotate(-225.000000) translate(-158.501848, -49.209052) "></path>
                            <path d="M225.01305,91.3596611 C224.904089,91.3596611 224.793502,91.3580463 224.682915,91.3548168 C223.92019,91.3257507 223.324971,90.6879118 223.354244,89.9305791 C223.383517,89.1732464 224.045413,88.6177614 224.788624,88.6113023 C226.338469,88.6839674 227.815131,88.1268677 228.951901,87.080489 C230.088671,86.0341103 230.747314,84.6114874 230.804234,83.0726002 C230.922953,79.897939 228.421734,77.2190158 225.226093,77.0995219 C224.463367,77.0704558 223.868149,76.432617 223.897422,75.6752842 C223.926695,74.9357141 224.539803,74.3543926 225.278134,74.3543926 C225.297649,74.3543926 225.313912,74.3543926 225.331801,74.3543926 C230.048014,74.5304038 233.744549,78.4866196 233.567284,83.1727167 C233.481091,85.4447149 232.510202,87.5455462 230.831881,89.0908925 C229.233247,90.560344 227.179255,91.3596611 225.01305,91.3596611 Z" id="Path" fill="#FF8002" opacity="0.5" transform="translate(228.463306, 82.857027) rotate(-225.000000) translate(-228.463306, -82.857027) "></path>
                            <path d="M243.381426,138.152414 C242.637059,138.152414 241.907133,137.860415 241.368878,137.324864 C240.657331,136.61647 240.376388,135.571557 240.635013,134.597352 C240.690151,134.385227 240.631075,134.165245 240.477475,134.012044 C240.294993,133.830035 240.056061,133.810394 239.891959,133.853605 C238.915223,134.112869 237.866282,133.830035 237.154735,133.120332 C236.441875,132.40801 236.158307,131.361788 236.416932,130.390202 C236.47207,130.176767 236.414306,129.958095 236.262019,129.807512 C236.076912,129.622885 235.834041,129.605862 235.668626,129.649073 C234.694516,129.904409 233.648201,129.624194 232.936654,128.914491 C232.225107,128.204788 231.942851,127.159875 232.200163,126.18567 C232.256614,125.976164 232.196225,125.750944 232.043938,125.599052 C231.862769,125.418353 231.617273,125.400021 231.457109,125.443232 C230.476434,125.698568 229.431432,125.415734 228.721198,124.709959 C228.009651,123.997638 227.728708,122.952724 227.984708,121.979829 C228.142246,121.384045 228.757957,121.030503 229.348725,121.187633 C229.944744,121.344763 230.300517,121.952331 230.142979,122.548115 C230.099656,122.713102 230.11541,122.955343 230.296579,123.136043 C230.450178,123.287935 230.670731,123.346858 230.889972,123.290554 C231.861456,123.036527 232.907772,123.316742 233.620631,124.025135 C234.332178,124.736148 234.614434,125.781061 234.358435,126.753956 C234.300671,126.9687 234.359747,127.188682 234.513347,127.341884 C234.694516,127.522583 234.933448,127.539605 235.100176,127.496395 C236.076912,127.241059 237.128479,127.523892 237.8374,128.233595 C238.547634,128.938061 238.82989,129.982974 238.57389,130.958488 C238.530567,131.123474 238.547634,131.365716 238.732741,131.549034 C238.912597,131.729733 239.15153,131.746756 239.318258,131.703545 C240.293681,131.4469 241.339996,131.728424 242.052855,132.438127 C242.764402,133.145211 243.047971,134.190124 242.790659,135.165638 C242.746023,135.331934 242.76309,135.571557 242.942945,135.750947 C243.125427,135.932956 243.370924,135.952597 243.5324,135.908077 C244.125794,135.753566 244.738879,136.104489 244.896417,136.698963 C245.053955,137.293438 244.699495,137.902316 244.103476,138.059446 C243.867169,138.122298 243.624298,138.152414 243.381426,138.152414 Z" id="Path" fill="#01060B" opacity="0.100000001" transform="translate(236.412748, 129.651372) rotate(166.000000) translate(-236.412748, -129.651372) "></path>
                            <path d="M120.489753,149.002084 C119.745386,149.002084 119.015459,148.710084 118.477204,148.174533 C117.765657,147.46614 117.484715,146.421227 117.74334,145.447022 C117.798478,145.234897 117.739401,145.014915 117.585802,144.861713 C117.40332,144.679705 117.164387,144.660064 117.000285,144.703274 C116.023549,144.962538 114.974608,144.679705 114.263062,143.970002 C113.550202,143.25768 113.266633,142.211457 113.525258,141.239872 C113.580397,141.026437 113.522633,140.807765 113.370346,140.657182 C113.185239,140.472554 112.942368,140.455532 112.776953,140.498743 C111.802842,140.754079 110.756527,140.473864 110.04498,139.764161 C109.333433,139.054458 109.051178,138.009545 109.30849,137.03534 C109.364941,136.825833 109.304551,136.600614 109.152265,136.448722 C108.971096,136.268023 108.725599,136.249691 108.565435,136.292902 C107.584761,136.548238 106.539759,136.265404 105.829525,135.559629 C105.117978,134.847307 104.837035,133.802394 105.093034,132.829499 C105.250572,132.233715 105.866283,131.880173 106.457051,132.037303 C107.05307,132.194433 107.408844,132.802001 107.251306,133.397785 C107.207983,133.562771 107.223736,133.805013 107.404905,133.985712 C107.558505,134.137604 107.779058,134.196528 107.998298,134.140223 C108.969783,133.886197 110.016098,134.166412 110.728958,134.874805 C111.440505,135.585817 111.72276,136.630731 111.466761,137.603626 C111.408997,137.81837 111.468074,138.038352 111.621674,138.191553 C111.802842,138.372253 112.041775,138.389275 112.208503,138.346064 C113.185239,138.090728 114.236805,138.373562 114.945726,139.083265 C115.65596,139.78773 115.938216,140.832643 115.682217,141.808158 C115.638894,141.973144 115.65596,142.215386 115.841068,142.398704 C116.020924,142.579403 116.259856,142.596425 116.426584,142.553215 C117.402007,142.296569 118.448322,142.578094 119.161182,143.287797 C119.872729,143.994881 120.156297,145.039794 119.898985,146.015308 C119.854349,146.181604 119.871416,146.421227 120.051272,146.600617 C120.233754,146.782625 120.47925,146.802267 120.640727,146.757746 C121.23412,146.603235 121.847206,146.954159 122.004744,147.548633 C122.162282,148.143108 121.807821,148.751986 121.211802,148.909115 C120.975495,148.971967 120.732624,149.002084 120.489753,149.002084 Z" id="Path-Copy" fill="#FF8002" opacity="0.100000001" transform="translate(113.521074, 140.501042) rotate(114.000000) translate(-113.521074, -140.501042) "></path>
                        </g>
                        <g id="Tick" transform="translate(44.000000, 38.000000)">
                            <g id="Group-11" transform="translate(0.027127, 1.000000)">
                                <mask id="mask-2" fill="white">
                                    <use xlink:href="#path-1"></use>
                                </mask>
                                <use id="Rectangle" fill="#FFFFFF" xlink:href="#path-1"></use>
                                <path d="M-52.9654208,114.116051 C7.71113378,108.243655 -29.8295991,59.2211855 0.745149247,57.0538364 C31.3198976,54.8864874 73.810881,110.408981 130.438872,81.1267443 C168.190865,61.605253 183.964161,71.6215614 177.758758,111.17567 L-32.9049025,134.705894 C-86.7296178,124.894263 -93.4164573,118.030982 -52.9654208,114.116051 Z" id="Path-4" fill="#FFF6ED" mask="url(#mask-2)"></path>
                            </g>
                            <path d="M117.770027,1 L150.625,1 L162,1 C167.522847,1 172,5.4771525 172,11 L172,89 C172,94.5228475 167.522847,99 162,99 C128.444444,99 103.277778,99 86.5,99 C81.0827493,99 74.7909308,99 67.6245447,99 C61.892538,99 55.6010231,99 48.75,99 M39.3107166,99 C36.5046312,99 33.3589698,99 29.8737323,99 M20.4367691,99 C18.62108,99 15.4754903,99 11,99 C5.4771525,99 1,94.5228475 1,89 L1,11 C1,5.4771525 5.4771525,1 11,1 L86.5,1 L107.875,1 L118.5625,1 M129.25,1 L139.9375,1" id="Shape" stroke="#1F1F26" stroke-width="3" stroke-linecap="round"></path>
                            <circle id="Oval" stroke="#42465A" stroke-width="3" fill="#FFFFFF" cx="86" cy="50" r="34"></circle>
                            <path d="M78.470592,47.7794305 L83.655068,53.222881 L94.529408,41.805347 C95.5521178,40.731551 97.2102579,40.731551 98.2329677,41.805347 C99.2556774,42.8791431 99.2556774,44.6201105 98.2329677,45.6939065 L83.655068,61 L74.7670323,51.66799 C73.7443226,50.5941939 73.7443226,48.8532265 74.7670323,47.7794305 C75.7897421,46.7056344 77.4478822,46.7056344 78.470592,47.7794305 Z" id="Path" fill="#FF8002" fill-rule="nonzero"></path>
                        </g>
                    </g>
                </g>
            </g>
        </g>
    </g>
</svg>