<svg xmlns="http://www.w3.org/2000/svg" width="75" height="75" viewBox="0 0 75 75">
  <defs>
    <linearGradient id="onb-a" x1="0%" x2="100%" y1="0%" y2="100%">
      <stop offset="0%" stop-color="#6294F8"/>
      <stop offset="100%" stop-color="#541CA9"/>
    </linearGradient>
  </defs>
  <g fill="none" fill-rule="evenodd">
    <circle cx="37.5" cy="37.5" r="37.5" fill="url(#onb-a)"/>
    <path fill="#FFF" fill-rule="nonzero" d="M47.262 35.212c.19.43.122.926-.203 1.279L33.41 51.445a1.28 1.28 0 01-1.558.225 1.18 1.18 0 01-.541-1.425l3.528-9.436h-5.776c-.846.002-1.322-.642-1.416-1.015-.093-.373-.148-.937.17-1.294l13.677-14.967a1.28 1.28 0 011.54-.201c.499.287.726.869.546 1.401l-3.46 9.458h5.667c.87 0 1.273.471 1.476 1.02z"/>
  </g>
</svg>
