<?xml version="1.0" encoding="UTF-8"?><!DOCTYPE svg PUBLIC "-//W3C//DTD SVG 1.1//EN" "http://www.w3.org/Graphics/SVG/1.1/DTD/svg11.dtd"><svg xmlns="http://www.w3.org/2000/svg"><symbol id="icon-arrow-right" viewBox="0 0 32 32">
    <title>
        arrow-right2
    </title>
    <path d="M19.414 27.414l10-10a2 2 0 0 0 0-2.828l-10-10a2 2 0 1 0-2.828 2.828L23.172 14H4a2 2 0 1 0 0 4h19.172l-6.586 6.586c-.39.39-.586.902-.586 1.414s.195 1.024.586 1.414a2 2 0 0 0 2.828 0z"/>
</symbol><symbol id="icon-bg-bottom" viewBox="0 0 1441.415 122.402">
    <path stroke-width="3.626" d="M3.196 26.738L1.84 120.589h1437.762V2.097C1034.044 61.208 635.269 71.98 3.196 26.738z"/>
</symbol><symbol id="icon-checkmark" viewBox="3.5 4.5 23 19">
    <path d="M22.646 5.5L12.333 15.812 7.521 11l-3.438 3.438 8.25 8.25 13.75-13.75L22.646 5.5z"/>
</symbol><symbol id="icon-close" viewBox="0 0 14 14">
    <title/>
    <path d="M14 1.4L12.6 0 7 5.6 1.4 0 0 1.4 5.6 7 0 12.6 1.4 14 7 8.4l5.6 5.6 1.4-1.4L8.4 7 14 1.4z" fill-rule="evenodd"/>
</symbol><symbol id="icon-logo_white" viewBox="31.5 34.5 124 48">
    <g>
        <path d="M145.932 73.979h5.189c0-.763-.24-1.373-.676-1.831-.436-.436-1.003-.676-1.679-.676-.741 0-1.373.218-1.875.676-.501.457-.807 1.068-.959 1.831zm-3.074 1.439c0-1.809.567-3.292 1.679-4.426 1.112-1.155 2.551-1.722 4.317-1.722 1.09 0 2.027.24 2.834.763a4.663 4.663 0 0 1 1.788 2.006c.392.828.589 1.766.589 2.834 0 .262-.022.632-.087 1.134h-8.11c.087.981.458 1.744 1.134 2.289.654.545 1.461.828 2.398.828 1.177 0 2.311-.436 3.357-1.286l1.155 2.093c-.589.523-1.308.937-2.158 1.243-.85.305-1.7.458-2.551.458-1.264 0-2.376-.283-3.357-.85-.981-.567-1.722-1.308-2.224-2.246a6.583 6.583 0 0 1-.764-3.118z"/>
        <path d="M125.57 75.483c0 .981.262 1.831.763 2.551.523.719 1.243 1.068 2.158 1.068.85 0 1.548-.327 2.115-.981.567-.654.85-1.548.85-2.66s-.262-2.006-.807-2.682c-.545-.676-1.243-1.025-2.093-1.025-.828 0-1.548.305-2.115.937-.566.634-.871 1.571-.871 2.792zm-2.835 5.821V64.931h2.921v5.08c0 .174 0 .349-.022.501-.022.153-.022.283-.044.349l-.022.131h.044c.349-.523.85-.937 1.482-1.264a4.583 4.583 0 0 1 2.071-.48c1.591 0 2.856.567 3.815 1.7.959 1.134 1.417 2.616 1.417 4.447 0 1.853-.501 3.336-1.526 4.469-1.025 1.134-2.311 1.7-3.902 1.7a4.473 4.473 0 0 1-2.028-.48c-.632-.327-1.155-.763-1.526-1.352h-.044c.022.218.044.48.044.785v.763h-2.682v.024z"/>
        <path d="M112.402 77.816c0 .414.153.785.48 1.09.305.305.741.458 1.308.458.763 0 1.417-.327 1.918-.981.501-.654.763-1.373.763-2.137v-.327h-.501c-.349 0-.676.022-.981.044a7.044 7.044 0 0 0-1.046.153c-.371.087-.698.174-.981.305a1.828 1.828 0 0 0-.676.545 1.328 1.328 0 0 0-.284.85zm-2.944.24c0-.48.087-.937.24-1.33.174-.392.392-.741.654-1.025s.61-.523.981-.741a5.454 5.454 0 0 1 1.177-.501c.392-.131.828-.218 1.308-.305s.894-.131 1.286-.174c.392-.022.785-.044 1.199-.044h.501v-.174c0-.719-.196-1.243-.61-1.57-.414-.327-.937-.48-1.591-.48-1.09 0-2.158.371-3.27 1.112l-1.09-2.093c.501-.414 1.177-.741 2.049-1.025a8.15 8.15 0 0 1 2.573-.414c1.548 0 2.747.414 3.597 1.243.85.828 1.286 1.962 1.286 3.445v7.347h-2.725v-.981c0-.153 0-.283.022-.436.022-.153.022-.24.044-.305l.022-.109h-.022a4.224 4.224 0 0 1-1.548 1.548 4.254 4.254 0 0 1-2.18.589c-1.09 0-2.006-.327-2.769-.981-.741-.7-1.134-1.55-1.134-2.596z"/>
        <path d="M101.37 81.304V69.531h2.812v2.071l-.044.807h.044a4.79 4.79 0 0 1 1.439-2.18 3.395 3.395 0 0 1 2.311-.872c.131 0 .305.022.545.044v2.878a5.143 5.143 0 0 0-.719-.044c-.567 0-1.09.109-1.548.349s-.828.567-1.09.959c-.283.414-.48.85-.61 1.352a6.392 6.392 0 0 0-.218 1.613v4.753h-2.921v.043z"/>
        <path d="M89.009 75.439c0 1.068.327 1.962 1.003 2.638a3.375 3.375 0 0 0 2.464 1.025c.981 0 1.809-.349 2.485-1.025.676-.676 1.025-1.57 1.025-2.638s-.349-1.94-1.025-2.638c-.676-.698-1.504-1.046-2.485-1.046-.981 0-1.809.349-2.464 1.046-.676.676-1.003 1.57-1.003 2.638zm-2.965 0c0-1.177.283-2.224.872-3.183a5.971 5.971 0 0 1 2.333-2.202c.981-.523 2.049-.785 3.227-.785s2.267.262 3.248.785a6.177 6.177 0 0 1 2.355 2.202c.589.937.872 2.006.872 3.183s-.283 2.246-.872 3.183c-.589.937-1.352 1.679-2.333 2.202-.981.523-2.049.785-3.248.785-1.177 0-2.267-.262-3.248-.785-.981-.523-1.766-1.243-2.333-2.202-.59-.959-.873-2.005-.873-3.183z"/>
        <path d="M65.725 81.304V69.531h2.812v1.373l-.044.828h.044c.305-.632.828-1.221 1.526-1.722a3.933 3.933 0 0 1 2.333-.763c1.788 0 2.921.807 3.401 2.42h.044c.349-.654.894-1.221 1.613-1.7a4.242 4.242 0 0 1 2.398-.719c2.573 0 3.881 1.482 3.881 4.469v7.565h-2.921v-7.02c0-.48-.044-.894-.109-1.221a1.605 1.605 0 0 0-.48-.807c-.24-.218-.589-.327-1.003-.327-.632 0-1.199.196-1.657.61-.458.392-.807.894-1.025 1.504s-.327 1.264-.327 1.962v5.276h-2.943v-7.02c0-.283-.022-.545-.044-.741-.022-.218-.065-.414-.131-.632s-.153-.392-.262-.523c-.109-.131-.262-.24-.458-.327s-.436-.131-.698-.131c-.654 0-1.221.218-1.679.632-.48.414-.807.916-1.025 1.526-.218.61-.305 1.243-.305 1.918v5.276h-2.943v.067z"/>
        <path d="M55.174 73.979h5.189c0-.763-.24-1.373-.676-1.831-.436-.436-1.003-.676-1.679-.676-.741 0-1.373.218-1.875.676-.502.457-.829 1.068-.959 1.831zM52.1 75.418c0-1.809.567-3.292 1.679-4.426 1.112-1.155 2.551-1.722 4.317-1.722 1.09 0 2.028.24 2.834.763.807.501 1.395 1.177 1.788 2.006s.589 1.766.589 2.834c0 .262-.022.632-.087 1.134h-8.11c.087.981.458 1.744 1.134 2.289.654.545 1.461.828 2.398.828 1.177 0 2.311-.436 3.357-1.286l1.155 2.093c-.589.523-1.308.937-2.158 1.243-.85.305-1.7.458-2.551.458-1.264 0-2.376-.283-3.357-.85-.981-.567-1.722-1.308-2.224-2.246a6.583 6.583 0 0 1-.764-3.118z"/>
        <path d="M146.564 67.329c-.458-3.379-1.679-6.562-4.731-9.527-2.267-2.202-5.145-3.772-8.35-4.404l-.785-.153-.349-.719a24.456 24.456 0 0 0-9.047-10.225c-3.772-2.398-8.263-3.772-13.059-3.772-5.407 0-10.399 1.744-14.432 4.709-4.142 3.052-7.303 7.369-8.873 12.383l-.632 2.006-1.744-1.134a16.397 16.397 0 0 0-4.338-2.006 17.034 17.034 0 0 0-4.753-.676 16.61 16.61 0 0 0-10.443 3.663c-3.009 2.42-5.428 5.995-5.69 9.898h-3.139c.392-5.058 2.878-9.156 6.846-12.361a19.734 19.734 0 0 1 12.427-4.382c1.94 0 3.837.283 5.646.828 1.199.349 2.355.828 3.466 1.395a27.908 27.908 0 0 1 9.374-12.143 27.457 27.457 0 0 1 16.307-5.341c5.428 0 10.486 1.57 14.759 4.273a27.876 27.876 0 0 1 9.876 10.857c3.51.85 6.671 2.638 9.156 5.08 4.011 3.924 5.385 7.674 5.799 11.794h-3.292v-.043z"/>
        <path d="M139.827 77.184c0 .61.087 1.046.283 1.264.196.24.501.349.916.349.174 0 .327 0 .436-.022v2.551a9.541 9.541 0 0 1-.916.065 7.13 7.13 0 0 1-1.003-.065 3.52 3.52 0 0 1-.959-.305 2.58 2.58 0 0 1-.872-.632c-.24-.262-.414-.632-.567-1.112a5.554 5.554 0 0 1-.24-1.679V64.844h2.878l.044 12.34z"/>
        <path d="M32.936 81.304l1.352-16.373h3.161l3.227 8.088c.109.283.24.632.371 1.025.131.414.24.741.327.981l.131.392h.044c.283-.959.545-1.766.807-2.398l3.227-8.11h3.161l1.33 16.373h-2.987l-.85-9.113c.087-.327.131-.698.131-1.112v-.24c0-.305 0-.567.022-.785l.022-.392h-.044a67.147 67.147 0 0 1-.894 2.529l-2.66 6.344h-2.616l-2.66-6.344c-.109-.283-.24-.632-.371-1.046-.153-.436-.262-.785-.371-1.068l-.153-.436h-.044c.022.414.044.828.044 1.199 0 .501.044.959.131 1.373l-.85 9.135h-2.987v-.022z"/>
    </g>
</symbol></svg>