<svg xmlns="http://www.w3.org/2000/svg" width="75" height="75" viewBox="0 0 75 75">
  <defs>
    <linearGradient id="call-a" x1="1.405%" x2="100%" y1="1.405%" y2="100%">
      <stop offset="0%" stop-color="#D1EF75"/>
      <stop offset="100%" stop-color="#3BD597"/>
    </linearGradient>
  </defs>
  <g fill="none" fill-rule="evenodd">
    <circle cx="37.5" cy="37.5" r="37.5" fill="url(#call-a)"/>
    <path fill="#FFF" d="M50.722 44.287c.059.398-.082.8-.375 1.075l-3.573 3.545a1.996 1.996 0 01-.634.457c-.241.12-.5.2-.766.241-.017 0-.07 0-.158.015-.087.014-.206.012-.349.012a12.5 12.5 0 01-1.652-.174 12.62 12.62 0 01-2.794-.86 23.494 23.494 0 01-3.746-2.06 27.976 27.976 0 01-4.457-3.761 29.321 29.321 0 01-3.115-3.547 25.285 25.285 0 01-1.989-3.13 16.928 16.928 0 01-1.127-2.604c-.22-.659-.39-1.333-.51-2.016a6.746 6.746 0 01-.108-1.33c.019-.317.027-.5.027-.537a2.64 2.64 0 01.242-.765c.11-.24.264-.455.457-.634l3.57-3.574c.224-.238.535-.374.861-.375a1 1 0 01.617.201c.181.137.336.305.457.498l2.873 5.453c.161.285.21.62.134.94a1.66 1.66 0 01-.456.858l-1.316 1.317a.475.475 0 00-.094.174.675.675 0 00-.04.202c.099.45.261.884.483 1.29.29.548.622 1.074.994 1.571.574.763 1.21 1.477 1.902 2.135.664.697 1.382 1.34 2.149 1.922.497.375 1.023.711 1.57 1.007.305.169.63.3.966.39l.337.066a.625.625 0 00.174-.04.452.452 0 00.174-.093l1.532-1.56a1.64 1.64 0 011.127-.429c.252-.013.503.041.726.159h.034l5.183 3.061c.343.188.588.517.67.9z"/>
  </g>
</svg>
