<svg xmlns="http://www.w3.org/2000/svg" xmlns:xlink="http://www.w3.org/1999/xlink" width="1260" height="356" viewBox="0 0 1260 356">
  <defs>
    <linearGradient id="lg-1" x1="32.115" x2="289.46" y1="1114.641" y2="1116.635" gradientTransform="scale(3.30685 .3024)" gradientUnits="userSpaceOnUse">
      <stop offset="0%" stop-color="#B66ED4"/>
      <stop offset="100%" stop-color="#FFDD3D"/>
    </linearGradient>
    <linearGradient id="lg35" x1="32.115" x2="289.46" y1="1114.641" y2="1116.635" gradientTransform="matrix(3.30685 0 0 .3024 6.989 .998)" gradientUnits="userSpaceOnUse" xlink:href="#lg-1"/>
    <linearGradient id="lg37" x1="32.115" x2="289.46" y1="1114.641" y2="1116.635" gradientTransform="matrix(3.30685 0 0 .3024 6.989 .998)" gradientUnits="userSpaceOnUse" xlink:href="#lg-1"/>
    <linearGradient id="lg39" x1="32.115" x2="289.46" y1="1114.641" y2="1116.635" gradientTransform="matrix(3.30685 0 0 .3024 6.989 .998)" gradientUnits="userSpaceOnUse" xlink:href="#lg-1"/>
    <linearGradient id="lg41" x1="32.115" x2="289.46" y1="1114.641" y2="1116.635" gradientTransform="matrix(3.30685 0 0 .3024 6.989 .998)" gradientUnits="userSpaceOnUse" xlink:href="#lg-1"/>
    <linearGradient id="lg43" x1="32.115" x2="289.46" y1="1114.641" y2="1116.635" gradientTransform="matrix(3.30685 0 0 .3024 6.989 .998)" gradientUnits="userSpaceOnUse" xlink:href="#lg-1"/>
    <linearGradient id="lg45" x1="32.115" x2="289.46" y1="1114.641" y2="1116.635" gradientTransform="matrix(3.30685 0 0 .3024 6.989 .998)" gradientUnits="userSpaceOnUse" xlink:href="#lg-1"/>
    <linearGradient id="lg47" x1="32.115" x2="289.46" y1="1114.641" y2="1116.635" gradientTransform="matrix(3.30685 0 0 .3024 6.989 .998)" gradientUnits="userSpaceOnUse" xlink:href="#lg-1"/>
    <linearGradient id="lg49" x1="32.115" x2="289.46" y1="1114.641" y2="1116.635" gradientTransform="matrix(3.30685 0 0 .3024 6.989 .998)" gradientUnits="userSpaceOnUse" xlink:href="#lg-1"/>
    <linearGradient id="lg51" x1="32.115" x2="289.46" y1="1114.641" y2="1116.635" gradientTransform="matrix(3.30685 0 0 .3024 6.989 .998)" gradientUnits="userSpaceOnUse" xlink:href="#lg-1"/>
    <linearGradient id="lg53" x1="32.115" x2="289.46" y1="1114.641" y2="1116.635" gradientTransform="matrix(3.30685 0 0 .3024 6.989 .998)" gradientUnits="userSpaceOnUse" xlink:href="#lg-1"/>
    <linearGradient id="lg55" x1="32.115" x2="289.46" y1="1114.641" y2="1116.635" gradientTransform="matrix(3.30685 0 0 .3024 6.989 .998)" gradientUnits="userSpaceOnUse" xlink:href="#lg-1"/>
    <linearGradient id="lg57" x1="32.115" x2="289.46" y1="1114.641" y2="1116.635" gradientTransform="matrix(3.30685 0 0 .3024 6.989 .998)" gradientUnits="userSpaceOnUse" xlink:href="#lg-1"/>
    <linearGradient id="lg59" x1="32.115" x2="289.46" y1="1114.641" y2="1116.635" gradientTransform="matrix(3.30685 0 0 .3024 6.989 .998)" gradientUnits="userSpaceOnUse" xlink:href="#lg-1"/>
    <linearGradient id="lg61" x1="32.115" x2="289.46" y1="1114.641" y2="1116.635" gradientTransform="matrix(3.30685 0 0 .3024 6.989 .998)" gradientUnits="userSpaceOnUse" xlink:href="#lg-1"/>
    <linearGradient id="lg63" x1="32.115" x2="289.46" y1="1114.641" y2="1116.635" gradientTransform="matrix(3.30685 0 0 .3024 6.989 .998)" gradientUnits="userSpaceOnUse" xlink:href="#lg-1"/>
    <linearGradient id="lg65" x1="32.115" x2="289.46" y1="1114.641" y2="1116.635" gradientTransform="matrix(3.30685 0 0 .3024 6.989 .998)" gradientUnits="userSpaceOnUse" xlink:href="#lg-1"/>
    <linearGradient id="lg67" x1="32.115" x2="289.46" y1="1114.641" y2="1116.635" gradientTransform="matrix(3.30685 0 0 .3024 6.989 .998)" gradientUnits="userSpaceOnUse" xlink:href="#lg-1"/>
    <linearGradient id="lg69" x1="32.115" x2="289.46" y1="1114.641" y2="1116.635" gradientTransform="scale(3.30685 .3024)" gradientUnits="userSpaceOnUse" xlink:href="#lg-1"/>
  </defs>
  <g fill="none" fill-rule="evenodd">
    <g fill="url(#lg69)" transform="translate(3.75 -29)">
      <path id="path923" fill="url(#lg35)" d="M142.989 361.799h-17.9l12.9-26.3-24.8-43.7h18.9l14.9 27.5 12.8-27.5h17.9z"/>
      <path id="path925" fill="url(#lg37)" d="M194.595 363.099q-6.2 0-11.2-2-4.9-2.1-8.4-5.5-3.4-3.5-5.3-8.1-1.8-4.6-1.8-9.8 0-5.2 1.8-9.8 1.9-4.6 5.3-8 3.5-3.5 8.4-5.5 5-2.1 11.2-2.1 6.3 0 11.2 2.1 5 2 8.4 5.5 3.5 3.4 5.3 8 1.9 4.6 1.9 9.8 0 5.2-1.9 9.8-1.8 4.6-5.3 8.1-3.4 3.4-8.4 5.5-4.9 2-11.2 2zm0-13.1q2.6 0 4.7-.9 2.2-1 3.7-2.7 1.5-1.7 2.3-3.9.9-2.2.9-4.8 0-2.5-.9-4.7-.8-2.3-2.3-3.9-1.5-1.7-3.7-2.7-2.1-1-4.7-1t-4.7 1q-2.1 1-3.6 2.7-1.5 1.6-2.3 3.9-.8 2.2-.8 4.7 0 2.6.8 4.8.8 2.2 2.3 3.9 1.5 1.7 3.6 2.7 2.1.9 4.7.9z"/>
      <path id="path927" fill="url(#lg39)" d="M276.856 313.599v48.2h-15.3v-6.9q-2 3.8-6.1 6-4 2.1-9.7 2.1-4.7 0-8.1-1.4-3.4-1.5-5.4-4.1-2.3-2.8-3-6.4-.7-3.7-.7-8.9v-28.6h15.2v24.7q0 5.2 1.8 8.5 1.9 3.2 6.7 3.2 4.8 0 7-3.3 2.3-3.3 2.3-8.9v-24.2z"/>
      <path id="path929" fill="url(#lg41)" d="M322.498 327.499q-1.6-.4-2.7-.5-1.1-.2-2.7-.2-6.3 0-10.1 3.7t-3.8 12.5v18.8h-15.3v-48.2h15.3v7.8q1.7-3.4 5.6-6 4-2.6 9.1-2.6 2.7 0 4.6.8z"/>
      <path id="path931" fill="url(#lg43)" d="M352.018 333.399q3.2.9 6 2 2.8 1 4.9 2.6 2.1 1.5 3.3 3.8 1.3 2.3 1.3 5.8 0 4.3-1.7 7.3-1.7 2.9-4.7 4.8-3 1.8-7 2.6-3.9.8-8.4.8-10.3 0-16.3-4.5-5.9-4.5-5.9-12.9h15q0 3.8 2.1 5.5 2.2 1.6 5.6 1.6 2.8 0 4.5-1 1.8-1.1 1.8-3.5 0-1.4-.8-2.2-.7-.9-2.3-1.6-1.5-.8-4-1.5-2.4-.8-5.8-1.9-3-.9-5.7-1.9-2.7-1.1-4.8-2.6-2-1.5-3.2-3.8-1.2-2.3-1.2-5.8 0-7.5 5.7-11.1 5.8-3.6 15.6-3.6 5.2 0 9.1 1.3 4 1.2 6.5 3.4 2.6 2.2 3.9 5.2 1.3 3 1.3 6.4h-15.1q0-3-1.6-4.6-1.5-1.7-4.7-1.7-2.3 0-4 1.1-1.7 1-1.7 3.2 0 1.3.8 2.2.8.8 2.3 1.5 1.6.7 3.9 1.4t5.3 1.7z"/>
      <path id="path933" fill="url(#lg45)" d="M458.514 361.799v-26q0-4.9-1.8-7.6-1.7-2.8-5.6-2.8-1.7 0-3.2.6-1.5.6-2.6 2t-1.7 3.8q-.6 2.3-.6 5.8v24.2h-14.8v-26.1q0-4.9-1.7-7.6-1.7-2.7-5.5-2.7-1.8 0-3.3.6-1.5.6-2.6 2.1-1.1 1.4-1.8 3.8-.6 2.4-.6 6v23.9h-14.8v-48.2h14.8v7q1.6-3.4 5.2-5.8t8.7-2.4q6.3 0 9.7 2.5 3.4 2.5 4.9 6.2 1.9-3.8 5.8-6.2 3.9-2.5 9.3-2.5 5.2 0 8.5 1.7 3.3 1.6 5.2 4.4 1.9 2.7 2.5 6.3.7 3.5.7 7.3v29.7z"/>
      <path id="path935" fill="url(#lg47)" d="M507.504 349.999q2.6 0 4.7-1t3.6-2.6q1.5-1.7 2.3-3.9.9-2.3.9-4.8t-.9-4.7q-.8-2.2-2.3-3.9-1.5-1.7-3.6-2.7-2.1-1-4.7-1t-4.7 1q-2.1 1-3.6 2.7-1.5 1.7-2.4 3.9-.8 2.2-.8 4.7t.8 4.8q.9 2.2 2.4 3.9 1.5 1.6 3.6 2.6t4.7 1zm26.8-36.4v48.2h-15.3v-6.8q-.9 1.7-2.4 3.2-1.5 1.4-3.5 2.5-1.9 1-4.2 1.6-2.3.7-4.6.7-5.2 0-9.6-1.9-4.3-2-7.4-5.3-3.1-3.4-4.8-8-1.7-4.7-1.7-10.1 0-5.4 1.7-10 1.7-4.7 4.8-8 3.1-3.4 7.4-5.3 4.4-2 9.6-2 2.3 0 4.6.7 2.3.6 4.2 1.7 2 1.1 3.5 2.6t2.4 3.1v-6.9z"/>
      <path id="path937" fill="url(#lg49)" d="M569.081 384.899q-5.9 0-10.3-1.2-4.3-1.2-7.5-3.8-2.9-2.4-4.8-6-1.8-3.5-1.8-8.4h15.3q.2 4.1 2.8 6.2 2.7 2.2 6.5 2.2 4.4 0 6.9-2.2 2.5-2.1 2.5-7.7v-9.9q-2 3.9-6 6-3.9 2.1-9.4 2.1-4.8 0-8.4-1.6-3.5-1.6-5.5-4.2-2.3-2.8-3-6.2-.7-3.5-.7-8.7v-27.9h15.2v24.7q0 5.2 1.8 8.5 1.9 3.2 6.7 3.2 4.8 0 7-3.3 2.3-3.3 2.3-8.9v-24.2h15.3v49.4q0 5.7-1.8 9.9t-4.9 6.8q-3.2 2.7-7.6 3.9-4.3 1.3-10.6 1.3z"/>
      <path id="path939" fill="url(#lg51)" d="M642.323 361.799h-15.3v-70h15.3v28.7q.9-1.6 2.4-3.1t3.5-2.6q2-1.1 4.2-1.7 2.3-.7 4.7-.7 5.2 0 9.5 2 4.4 1.9 7.5 5.3 3.1 3.3 4.8 8 1.7 4.6 1.7 10t-1.7 10.1q-1.7 4.6-4.8 8-3.1 3.3-7.5 5.3-4.3 1.9-9.5 1.9-2.4 0-4.7-.7-2.2-.6-4.2-1.6-2-1.1-3.5-2.5-1.5-1.5-2.4-3.2zm11.6-11.8q2.5 0 4.6-1 2.1-1 3.6-2.6 1.5-1.7 2.3-3.9.9-2.3.9-4.8t-.9-4.7q-.8-2.2-2.3-3.9-1.5-1.7-3.6-2.7-2.1-1-4.6-1-2.6 0-4.8 1-2.1 1-3.6 2.7-1.5 1.7-2.4 3.9-.8 2.2-.8 4.7t.8 4.8q.9 2.2 2.4 3.9 1.5 1.6 3.6 2.6 2.2 1 4.8 1z"/>
      <path id="path941" fill="url(#lg53)" d="M700.795 341.399q.1 2.2.6 4.2.6 1.9 1.8 3.4 1.3 1.4 3.3 2.3 2 .8 5 .8 4 0 6-1.6 2.1-1.6 2.9-3.9h15q-.5 3.4-2.4 6.4-1.8 3-4.9 5.3-3 2.2-7.2 3.5-4.1 1.3-9.3 1.3-6.3 0-11.2-1.8-4.8-1.9-8.1-5.3t-5-8q-1.7-4.7-1.7-10.3 0-5.3 1.6-9.9 1.7-4.6 4.9-8 3.3-3.5 8-5.5 4.8-2 11.1-2 5.7 0 10.2 1.8 4.6 1.8 7.8 4.8 3.3 3 5 7 1.8 4 1.8 8.4 0 1.5-.1 3.2 0 1.7-.4 3.9zm10.3-18.9q-4.5 0-7.4 2.6-2.9 2.6-2.9 7.5h20.2q0-4.7-2.8-7.4-2.7-2.7-7.1-2.7z"/>
      <path id="path943" fill="url(#lg55)" d="M796.631 361.799q-1.7.3-4.3.5-2.5.3-5.9.3-2.7 0-5.7-.4t-5.6-2q-2.5-1.7-4.2-5.1-1.6-3.5-1.6-9.5v-20.6h-7.6v-11.4h7.6v-14.3h15.2v14.3h11v11.4h-11v17.2q0 2.7.5 4.3.5 1.6 1.4 2.5.9.8 2.1 1.1 1.2.3 2.6.3h2.9q1.5-.1 2.6-.3z"/>
      <path id="path945" fill="url(#lg57)" d="M802.812 291.799h14.8v28.8q2-3.8 6-6t9.6-2.2q4.7 0 7.9 1.5 3.2 1.4 5.2 4 2.3 2.8 3.1 6.5.8 3.7.8 8.9v28.5h-14.8v-24.7q0-5.2-1.9-8.4-1.8-3.3-6.6-3.3-4.7 0-7 3.3t-2.3 8.9v24.2h-14.8z"/>
      <path id="path947" fill="url(#lg59)" d="M872.678 341.399q.1 2.2.6 4.2.6 1.9 1.8 3.4 1.3 1.4 3.3 2.3 2 .8 5 .8 4 0 6-1.6 2.1-1.6 2.9-3.9h15q-.5 3.4-2.4 6.4-1.8 3-4.9 5.3-3 2.2-7.2 3.5-4.1 1.3-9.3 1.3-6.3 0-11.2-1.8-4.8-1.9-8.1-5.3t-5-8q-1.7-4.7-1.7-10.3 0-5.3 1.6-9.9 1.7-4.6 4.9-8 3.3-3.5 8-5.5 4.8-2 11.1-2 5.7 0 10.2 1.8 4.6 1.8 7.8 4.8 3.3 3 5 7 1.8 4 1.8 8.4 0 1.5-.1 3.2 0 1.7-.4 3.9zm10.3-18.9q-4.5 0-7.4 2.6-2.9 2.6-2.9 7.5h20.2q0-4.7-2.8-7.4-2.7-2.7-7.1-2.7z"/>
      <path id="path949" fill="url(#lg61)" d="M938.414 313.599h15.3v7q2-3.9 6-6 4.1-2.2 9.8-2.2 4.7 0 8.1 1.5 3.4 1.4 5.4 4 2.3 2.8 3 6.5.8 3.6.8 8.8v28.6h-15.3v-24.7q0-5.2-1.9-8.4-1.8-3.3-6.6-3.3-4.7 0-7 3.3t-2.3 8.9v24.2h-15.3z"/>
      <path id="path951" fill="url(#lg63)" d="M1009.256 341.399q.1 2.2.6 4.2.6 1.9 1.8 3.4 1.3 1.4 3.3 2.3 2 .8 5 .8 4 0 6-1.6 2.1-1.6 2.9-3.9h15q-.5 3.4-2.4 6.4-1.8 3-4.9 5.3-3 2.2-7.2 3.5-4.1 1.3-9.3 1.3-6.3 0-11.2-1.8-4.8-1.9-8.1-5.3t-5-8q-1.7-4.7-1.7-10.3 0-5.3 1.6-9.9 1.7-4.6 4.9-8 3.3-3.5 8-5.5 4.8-2 11.1-2 5.7 0 10.2 1.8 4.6 1.8 7.8 4.8 3.3 3 5 7 1.8 4 1.8 8.4 0 1.5-.1 3.2 0 1.7-.4 3.9zm10.3-18.9q-4.5 0-7.4 2.6-2.9 2.6-2.9 7.5h20.2q0-4.7-2.8-7.4-2.7-2.7-7.1-2.7z"/>
      <path id="path953" fill="url(#lg65)" d="M1096.597 361.799h-17.7l-7.9-14-7.9 14h-17.7l16.6-24.3-16.3-23.9h17.7l7.6 13.6 7.6-13.6h17.7l-16.2 23.9z"/>
      <path id="path955" fill="url(#lg67)" d="M1131.264 361.799q-1.7.3-4.3.5-2.5.3-5.9.3-2.7 0-5.7-.4t-5.6-2q-2.5-1.7-4.2-5.1-1.6-3.5-1.6-9.5v-20.6h-7.6v-11.4h7.6v-14.3h15.2v14.3h11v11.4h-11v17.2q0 2.7.5 4.3.5 1.6 1.4 2.5.9.8 2.1 1.1 1.2.3 2.6.3h2.9q1.5-.1 2.6-.3z"/>
    </g>
    <g fill="#fff">
      <path d="M254.189 14.998v15.9h26.5v12.7h-26.5v15.4h26.5v13h-42.7v-70h42.7v13zM299.581 23.798l11.7 30.3 11.8-30.3h16l-21.8 48.2h-12.2l-21.5-48.2zM352.529 51.598q.1 2.2.6 4.2.6 1.9 1.8 3.4 1.3 1.4 3.3 2.3 2 .8 5 .8 4 0 6-1.6 2.1-1.6 2.9-3.9h15q-.5 3.4-2.4 6.4-1.8 3-4.9 5.3-3 2.2-7.2 3.5-4.1 1.3-9.3 1.3-6.3 0-11.2-1.8-4.8-1.9-8.1-5.3t-5-8q-1.7-4.7-1.7-10.3 0-5.3 1.6-9.9 1.7-4.6 4.9-8 3.3-3.5 8-5.5 4.8-2 11.1-2 5.7 0 10.2 1.8 4.6 1.8 7.8 4.8 3.3 3 5 7 1.8 4 1.8 8.4 0 1.5-.1 3.2 0 1.7-.4 3.9zm10.3-18.9q-4.5 0-7.4 2.6-2.9 2.6-2.9 7.5h20.2q0-4.7-2.8-7.4-2.7-2.7-7.1-2.7zM430.647 37.698q-1.6-.4-2.7-.5-1.1-.2-2.7-.2-6.3 0-10.1 3.7t-3.8 12.5v18.8h-15.3v-48.2h15.3v7.8q1.7-3.4 5.6-6 4-2.6 9.1-2.6 2.7 0 4.6.8zM459.644 95.098q-5.9 0-10.3-1.2-4.3-1.2-7.5-3.8-2.9-2.4-4.8-6-1.8-3.5-1.8-8.4h15.3q.2 4.1 2.8 6.2 2.7 2.2 6.5 2.2 4.4 0 6.9-2.2 2.5-2.1 2.5-7.7v-9.9q-2 3.9-6 6-3.9 2.1-9.4 2.1-4.8 0-8.4-1.6-3.5-1.6-5.5-4.2-2.3-2.8-3-6.2-.7-3.5-.7-8.7v-27.9h15.2v24.7q0 5.2 1.8 8.5 1.9 3.2 6.7 3.2 4.8 0 7-3.3 2.3-3.3 2.3-8.9v-24.2h15.3v49.4q0 5.7-1.8 9.9t-4.9 6.8q-3.2 2.7-7.6 3.9-4.3 1.3-10.6 1.3zM519.067 60.198q2.6 0 4.7-1t3.6-2.6q1.5-1.7 2.3-3.9.9-2.3.9-4.8t-.9-4.7q-.8-2.2-2.3-3.9-1.5-1.7-3.6-2.7-2.1-1-4.7-1t-4.7 1q-2.1 1-3.6 2.7-1.5 1.7-2.4 3.9-.8 2.2-.8 4.7t.8 4.8q.9 2.2 2.4 3.9 1.5 1.6 3.6 2.6t4.7 1zm11.5 5q-.9 1.7-2.4 3.2-1.5 1.4-3.5 2.5-1.9 1-4.2 1.6-2.3.7-4.6.7-5.2 0-9.6-1.9-4.3-2-7.4-5.3-3.1-3.4-4.8-8-1.7-4.7-1.7-10.1 0-5.4 1.7-10 1.7-4.7 4.8-8 3.1-3.4 7.4-5.3 4.4-2 9.6-2 2.3 0 4.6.7 2.3.6 4.2 1.7 2 1.1 3.5 2.6t2.4 3.1v-28.7h15.3v70h-15.3zM580.544 60.198q2.6 0 4.7-1t3.6-2.6q1.5-1.7 2.3-3.9.9-2.3.9-4.8t-.9-4.7q-.8-2.2-2.3-3.9-1.5-1.7-3.6-2.7-2.1-1-4.7-1t-4.7 1q-2.1 1-3.6 2.7-1.5 1.7-2.4 3.9-.8 2.2-.8 4.7t.8 4.8q.9 2.2 2.4 3.9 1.5 1.6 3.6 2.6t4.7 1zm26.8-36.4v48.2h-15.3v-6.8q-.9 1.7-2.4 3.2-1.5 1.4-3.5 2.5-1.9 1-4.2 1.6-2.3.7-4.6.7-5.2 0-9.6-1.9-4.3-2-7.4-5.3-3.1-3.4-4.8-8-1.7-4.7-1.7-10.1 0-5.4 1.7-10 1.7-4.7 4.8-8 3.1-3.4 7.4-5.3 4.4-2 9.6-2 2.3 0 4.6.7 2.3.6 4.2 1.7 2 1.1 3.5 2.6t2.4 3.1v-6.9zM642.12 95.098q-5.9 0-10.3-1.2-4.3-1.2-7.5-3.8-2.9-2.4-4.8-6-1.8-3.5-1.8-8.4h15.3q.2 4.1 2.8 6.2 2.7 2.2 6.5 2.2 4.4 0 6.9-2.2 2.5-2.1 2.5-7.7v-9.9q-2 3.9-6 6-3.9 2.1-9.4 2.1-4.8 0-8.4-1.6-3.5-1.6-5.5-4.2-2.3-2.8-3-6.2-.7-3.5-.7-8.7v-27.9h15.2v24.7q0 5.2 1.8 8.5 1.9 3.2 6.7 3.2 4.8 0 7-3.3 2.3-3.3 2.3-8.9v-24.2h15.3v49.4q0 5.7-1.8 9.9t-4.9 6.8q-3.2 2.7-7.6 3.9-4.3 1.3-10.6 1.3zM740.662 44.198h-24.2v27.8h-16.2v-70h16.2v28.3h24.2v-28.3h16.1v70h-16.1zM815.684 23.798v48.2h-15.3v-6.9q-2 3.8-6.1 6-4 2.1-9.7 2.1-4.7 0-8.1-1.4-3.4-1.5-5.4-4.1-2.3-2.8-3-6.4-.7-3.7-.7-8.9v-28.6h15.2v24.7q0 5.2 1.8 8.5 1.9 3.2 6.7 3.2 4.8 0 7-3.3 2.3-3.3 2.3-8.9v-24.2zM887.326 71.998v-26q0-4.9-1.8-7.6-1.7-2.8-5.6-2.8-1.7 0-3.2.6-1.5.6-2.6 2t-1.7 3.8q-.6 2.3-.6 5.8v24.2h-14.8v-26.1q0-4.9-1.7-7.6-1.7-2.7-5.5-2.7-1.8 0-3.3.6-1.5.6-2.6 2.1-1.1 1.4-1.8 3.8-.6 2.4-.6 6v23.9h-14.8v-48.2h14.8v7q1.6-3.4 5.2-5.8t8.7-2.4q6.3 0 9.7 2.5 3.4 2.5 4.9 6.2 1.9-3.8 5.8-6.2 3.9-2.5 9.3-2.5 5.2 0 8.5 1.7 3.3 1.6 5.2 4.4 1.9 2.7 2.5 6.3.7 3.5.7 7.3v29.7zM936.317 60.198q2.6 0 4.7-1t3.6-2.6q1.5-1.7 2.3-3.9.9-2.3.9-4.8t-.9-4.7q-.8-2.2-2.3-3.9-1.5-1.7-3.6-2.7-2.1-1-4.7-1t-4.7 1q-2.1 1-3.6 2.7-1.5 1.7-2.4 3.9-.8 2.2-.8 4.7t.8 4.8q.9 2.2 2.4 3.9 1.5 1.6 3.6 2.6t4.7 1zm26.8-36.4v48.2h-15.3v-6.8q-.9 1.7-2.4 3.2-1.5 1.4-3.5 2.5-1.9 1-4.2 1.6-2.3.7-4.6.7-5.2 0-9.6-1.9-4.3-2-7.4-5.3-3.1-3.4-4.8-8-1.7-4.7-1.7-10.1 0-5.4 1.7-10 1.7-4.7 4.8-8 3.1-3.4 7.4-5.3 4.4-2 9.6-2 2.3 0 4.6.7 2.3.6 4.2 1.7 2 1.1 3.5 2.6t2.4 3.1v-6.9zM974.094 23.798h15.3v7q2-3.9 6-6 4.1-2.2 9.8-2.2 4.7 0 8.1 1.5 3.4 1.4 5.4 4 2.3 2.8 3 6.5.8 3.6.8 8.8v28.6h-15.3v-24.7q0-5.2-1.9-8.4-1.8-3.3-6.6-3.3-4.7 0-7 3.3t-2.3 8.9v24.2h-15.3zM9.989 137.798q0-4.1 2.8-6.9 2.8-2.8 7-2.8 2.1 0 3.9.8 1.8.7 3.1 2 1.4 1.3 2.1 3.1.8 1.8.8 3.8 0 2-.8 3.8-.7 1.7-2.1 3.1-1.3 1.3-3.1 2.1-1.8.7-3.9.7-2.1 0-3.9-.7-1.7-.8-3.1-2.1-1.3-1.4-2.1-3.1-.7-1.8-.7-3.8zm2.2 16h15.3v48.2h-15.3zM99.109 201.998v-26q0-4.9-1.8-7.6-1.7-2.8-5.6-2.8-1.7 0-3.2.6-1.5.6-2.6 2t-1.7 3.8q-.6 2.3-.6 5.8v24.2h-14.8v-26.1q0-4.9-1.7-7.6-1.7-2.7-5.5-2.7-1.8 0-3.3.6-1.5.6-2.6 2.1-1.1 1.4-1.8 3.8-.6 2.4-.6 6v23.9h-14.8v-48.2h14.8v7q1.6-3.4 5.2-5.8t8.7-2.4q6.3 0 9.7 2.5 3.4 2.5 4.9 6.2 1.9-3.8 5.8-6.2 3.9-2.5 9.3-2.5 5.2 0 8.5 1.7 3.3 1.6 5.2 4.4 1.9 2.7 2.5 6.3.7 3.5.7 7.3v29.7zM151.299 165.598q-2.6 0-4.8 1-2.1 1-3.6 2.7-1.5 1.6-2.4 3.9-.8 2.2-.8 4.7t.8 4.8q.9 2.2 2.4 3.9 1.5 1.6 3.6 2.6 2.2 1 4.8 1 2.5 0 4.6-1 2.1-1 3.6-2.6 1.5-1.7 2.3-3.9.9-2.3.9-4.8t-.9-4.7q-.8-2.3-2.3-3.9-1.5-1.7-3.6-2.7-2.1-1-4.6-1zm-11.6-4.9q.9-1.6 2.4-3.1t3.5-2.6q2-1.1 4.2-1.7 2.3-.7 4.7-.7 5.2 0 9.5 2 4.4 1.9 7.5 5.3 3.1 3.3 4.8 8 1.7 4.6 1.7 10t-1.7 10.1q-1.7 4.6-4.8 8-3.1 3.3-7.5 5.3-4.3 1.9-9.5 1.9-2.4 0-4.7-.7-2.2-.6-4.2-1.7t-3.5-2.5q-1.5-1.5-2.4-3.2v28.7h-15.3v-70h15.3zM186.072 131.998h15.3v70h-15.3zM224.492 181.598q.1 2.2.6 4.2.6 1.9 1.8 3.4 1.3 1.4 3.3 2.3 2 .8 5 .8 4 0 6-1.6 2.1-1.6 2.9-3.9h15q-.5 3.4-2.4 6.4-1.8 3-4.9 5.3-3 2.2-7.2 3.5-4.1 1.3-9.3 1.3-6.3 0-11.2-1.8-4.8-1.9-8.1-5.3t-5-8q-1.7-4.7-1.7-10.3 0-5.3 1.6-9.9 1.7-4.6 4.9-8 3.3-3.5 8-5.5 4.8-2 11.1-2 5.7 0 10.2 1.8 4.6 1.8 7.8 4.8 3.3 3 5 7 1.8 4 1.8 8.4 0 1.5-.1 3.2 0 1.7-.4 3.9zm10.3-18.9q-4.5 0-7.4 2.6-2.9 2.6-2.9 7.5h20.2q0-4.7-2.8-7.4-2.7-2.7-7.1-2.7zM328.609 201.998v-26q0-4.9-1.8-7.6-1.7-2.8-5.6-2.8-1.7 0-3.2.6-1.5.6-2.6 2t-1.7 3.8q-.6 2.3-.6 5.8v24.2h-14.8v-26.1q0-4.9-1.7-7.6-1.7-2.7-5.5-2.7-1.8 0-3.3.6-1.5.6-2.6 2.1-1.1 1.4-1.8 3.8-.6 2.4-.6 6v23.9h-14.8v-48.2h14.8v7q1.6-3.4 5.2-5.8t8.7-2.4q6.3 0 9.7 2.5 3.4 2.5 4.9 6.2 1.9-3.8 5.8-6.2 3.9-2.5 9.3-2.5 5.2 0 8.5 1.7 3.3 1.6 5.2 4.4 1.9 2.7 2.5 6.3.7 3.5.7 7.3v29.7zM365.999 181.598q.1 2.2.6 4.2.6 1.9 1.8 3.4 1.3 1.4 3.3 2.3 2 .8 5 .8 4 0 6-1.6 2.1-1.6 2.9-3.9h15q-.5 3.4-2.4 6.4-1.8 3-4.9 5.3-3 2.2-7.2 3.5-4.1 1.3-9.3 1.3-6.3 0-11.2-1.8-4.8-1.9-8.1-5.3t-5-8q-1.7-4.7-1.7-10.3 0-5.3 1.6-9.9 1.7-4.6 4.9-8 3.3-3.5 8-5.5 4.8-2 11.1-2 5.7 0 10.2 1.8 4.6 1.8 7.8 4.8 3.3 3 5 7 1.8 4 1.8 8.4 0 1.5-.1 3.2 0 1.7-.4 3.9zm10.3-18.9q-4.5 0-7.4 2.6-2.9 2.6-2.9 7.5h20.2q0-4.7-2.8-7.4-2.7-2.7-7.1-2.7zM409.517 153.798h15.3v7q2-3.9 6-6 4.1-2.2 9.8-2.2 4.7 0 8.1 1.5 3.4 1.4 5.4 4 2.3 2.8 3 6.5.8 3.6.8 8.8v28.6h-15.3v-24.7q0-5.2-1.9-8.4-1.8-3.3-6.6-3.3-4.7 0-7 3.3t-2.3 8.9v24.2h-15.3zM498.359 201.998q-1.7.3-4.3.5-2.5.3-5.9.3-2.7 0-5.7-.4t-5.6-2q-2.5-1.7-4.2-5.1-1.6-3.5-1.6-9.5v-20.6h-7.6v-11.4h7.6v-14.3h15.2v14.3h11v11.4h-11v17.2q0 2.7.5 4.3.5 1.6 1.4 2.5.9.8 2.1 1.1 1.2.3 2.6.3h2.9q1.5-.1 2.6-.3zM529.841 173.598q3.2.9 6 2 2.8 1 4.9 2.6 2.1 1.5 3.3 3.8 1.3 2.3 1.3 5.8 0 4.3-1.7 7.3-1.7 2.9-4.7 4.8-3 1.8-7 2.6-3.9.8-8.4.8-10.3 0-16.3-4.5-5.9-4.5-5.9-12.9h15q0 3.8 2.1 5.5 2.2 1.6 5.6 1.6 2.8 0 4.5-1 1.8-1.1 1.8-3.5 0-1.4-.8-2.2-.7-.9-2.3-1.6-1.5-.8-4-1.5-2.4-.8-5.8-1.9-3-.9-5.7-1.9-2.7-1.1-4.8-2.6-2-1.5-3.2-3.8-1.2-2.3-1.2-5.8 0-7.5 5.7-11.1 5.8-3.6 15.6-3.6 5.2 0 9.1 1.3 4 1.2 6.5 3.4 2.6 2.2 3.9 5.2 1.3 3 1.3 6.4h-15.1q0-3-1.6-4.6-1.5-1.7-4.7-1.7-2.3 0-4 1.1-1.7 1-1.7 3.2 0 1.3.8 2.2.8.8 2.3 1.5 1.6.7 3.9 1.4t5.3 1.7zM599.436 165.598q-2.6 0-4.7 1t-3.6 2.7q-1.5 1.7-2.3 3.9-.8 2.2-.8 4.7t.8 4.8q.8 2.2 2.3 3.9 1.5 1.6 3.6 2.6t4.7 1q2.6 0 4.7-1 2.2-1 3.7-2.6 1.5-1.7 2.3-3.9.9-2.3.9-4.8t-.9-4.7q-.8-2.2-2.3-3.9-1.5-1.7-3.7-2.7-2.1-1-4.7-1zm26.9 36.1q0 6.6-1.9 10.9-1.9 4.4-5.7 7.3-3.4 2.6-8.1 3.9-4.7 1.3-11.4 1.3-6.8 0-11.4-1.5-4.5-1.5-7.5-4.1-3.2-2.7-5-6.3-1.8-3.5-2-7.5h15.3q.3 3.1 2.9 5.6 2.7 2.5 7.7 2.5 5.4 0 8.6-2.6 3.2-2.6 3.2-8.3v-8.1q-2 3.3-6 5.4-4 2.1-8.7 2.1-5.2 0-9.6-1.8-4.3-1.8-7.4-5-3.1-3.3-4.9-7.7-1.7-4.5-1.7-9.9t1.6-10q1.7-4.7 4.8-8 3.1-3.4 7.4-5.3 4.3-2 9.6-2 4.6 0 8.7 2.2 4.2 2.1 6.2 5.9v-6.9h15.3zM671.617 167.698q-1.6-.4-2.7-.5-1.1-.2-2.7-.2-6.3 0-10.1 3.7t-3.8 12.5v18.8h-15.3v-48.2h15.3v7.8q1.7-3.4 5.6-6 4-2.6 9.1-2.6 2.7 0 4.6.8zM687.937 181.598q.1 2.2.6 4.2.6 1.9 1.8 3.4 1.3 1.4 3.3 2.3 2 .8 5 .8 4 0 6-1.6 2.1-1.6 2.9-3.9h15q-.5 3.4-2.4 6.4-1.8 3-4.9 5.3-3 2.2-7.2 3.5-4.1 1.3-9.3 1.3-6.3 0-11.2-1.8-4.8-1.9-8.1-5.3t-5-8q-1.7-4.7-1.7-10.3 0-5.3 1.6-9.9 1.7-4.6 4.9-8 3.3-3.5 8-5.5 4.8-2 11.1-2 5.7 0 10.2 1.8 4.6 1.8 7.8 4.8 3.3 3 5 7 1.8 4 1.8 8.4 0 1.5-.1 3.2 0 1.7-.4 3.9zm10.3-18.9q-4.5 0-7.4 2.6-2.9 2.6-2.9 7.5h20.2q0-4.7-2.8-7.4-2.7-2.7-7.1-2.7zM755.155 190.198q2.6 0 4.7-1t3.6-2.6q1.5-1.7 2.3-3.9.9-2.3.9-4.8t-.9-4.7q-.8-2.2-2.3-3.9-1.5-1.7-3.6-2.7-2.1-1-4.7-1t-4.7 1q-2.1 1-3.6 2.7-1.5 1.7-2.4 3.9-.8 2.2-.8 4.7t.8 4.8q.9 2.2 2.4 3.9 1.5 1.6 3.6 2.6t4.7 1zm26.8-36.4v48.2h-15.3v-6.8q-.9 1.7-2.4 3.2-1.5 1.4-3.5 2.5-1.9 1-4.2 1.6-2.3.7-4.6.7-5.2 0-9.6-1.9-4.3-2-7.4-5.3-3.1-3.4-4.8-8-1.7-4.7-1.7-10.1 0-5.4 1.7-10 1.7-4.7 4.8-8 3.1-3.4 7.4-5.3 4.4-2 9.6-2 2.3 0 4.6.7 2.3.6 4.2 1.7 2 1.1 3.5 2.6t2.4 3.1v-6.9zM823.031 201.998q-1.7.3-4.3.5-2.5.3-5.9.3-2.7 0-5.7-.4t-5.6-2q-2.5-1.7-4.2-5.1-1.6-3.5-1.6-9.5v-20.6h-7.6v-11.4h7.6v-14.3h15.2v14.3h11v11.4h-11v17.2q0 2.7.5 4.3.5 1.6 1.4 2.5.9.8 2.1 1.1 1.2.3 2.6.3h2.9q1.5-.1 2.6-.3zM878.331 165.598q-2.6 0-4.8 1-2.1 1-3.6 2.7-1.5 1.6-2.4 3.9-.8 2.2-.8 4.7t.8 4.8q.9 2.2 2.4 3.9 1.5 1.6 3.6 2.6 2.2 1 4.8 1 2.5 0 4.6-1 2.1-1 3.6-2.6 1.5-1.7 2.3-3.9.9-2.3.9-4.8t-.9-4.7q-.8-2.3-2.3-3.9-1.5-1.7-3.6-2.7-2.1-1-4.6-1zm-11.6-4.9q.9-1.6 2.4-3.1t3.5-2.6q2-1.1 4.2-1.7 2.3-.7 4.7-.7 5.2 0 9.5 2 4.4 1.9 7.5 5.3 3.1 3.3 4.8 8 1.7 4.6 1.7 10t-1.7 10.1q-1.7 4.6-4.8 8-3.1 3.3-7.5 5.3-4.3 1.9-9.5 1.9-2.4 0-4.7-.7-2.2-.6-4.2-1.7t-3.5-2.5q-1.5-1.5-2.4-3.2v28.7h-15.3v-70h15.3zM947.703 167.698q-1.6-.4-2.7-.5-1.1-.2-2.7-.2-6.3 0-10.1 3.7t-3.8 12.5v18.8h-15.3v-48.2h15.3v7.8q1.7-3.4 5.6-6 4-2.6 9.1-2.6 2.7 0 4.6.8zM973.956 203.298q-6.2 0-11.2-2-4.9-2.1-8.4-5.5-3.4-3.5-5.3-8.1-1.8-4.6-1.8-9.8 0-5.2 1.8-9.8 1.9-4.6 5.3-8 3.5-3.5 8.4-5.5 5-2.1 11.2-2.1 6.3 0 11.2 2.1 5 2 8.4 5.5 3.5 3.4 5.3 8 1.9 4.6 1.9 9.8 0 5.2-1.9 9.8-1.8 4.6-5.3 8.1-3.4 3.4-8.4 5.5-4.9 2-11.2 2zm0-13.1q2.6 0 4.7-.9 2.2-1 3.7-2.7 1.5-1.7 2.3-3.9.9-2.2.9-4.8 0-2.5-.9-4.7-.8-2.3-2.3-3.9-1.5-1.7-3.7-2.7-2.1-1-4.7-1t-4.7 1q-2.1 1-3.6 2.7-1.5 1.6-2.3 3.9-.8 2.2-.8 4.7 0 2.6.8 4.8.8 2.2 2.3 3.9 1.5 1.7 3.6 2.7 2.1.9 4.7.9zM1006.317 137.798q0-4.1 2.8-6.9 2.8-2.8 7-2.8 2.1 0 3.9.8 1.8.7 3.1 2 1.4 1.3 2.1 3.1.8 1.8.8 3.8 0 2-.8 3.8-.7 1.7-2.1 3.1-1.3 1.3-3.1 2.1-1.8.7-3.9.7-2.1 0-3.9-.7-1.7-.8-3.1-2.1-1.3-1.4-2.1-3.1-.7-1.8-.7-3.8zm17.5 71.7q0 4.7-1.1 7.7-1.1 3.1-3 4.8-1.8 1.7-4.3 2.3-2.4.7-5.2.7-2.7 0-5.5-.4-2.7-.3-4.1-.8v-11.7q1.4.2 2.2.2.8.1 1.7.1 4 0 4-4.9v-53.7h15.3zM1046.547 181.598q.1 2.2.6 4.2.6 1.9 1.8 3.4 1.3 1.4 3.3 2.3 2 .8 5 .8 4 0 6-1.6 2.1-1.6 2.9-3.9h15q-.5 3.4-2.4 6.4-1.8 3-4.9 5.3-3 2.2-7.2 3.5-4.1 1.3-9.3 1.3-6.3 0-11.2-1.8-4.8-1.9-8.1-5.3t-5-8q-1.7-4.7-1.7-10.3 0-5.3 1.6-9.9 1.7-4.6 4.9-8 3.3-3.5 8-5.5 4.8-2 11.1-2 5.7 0 10.2 1.8 4.6 1.8 7.8 4.8 3.3 3 5 7 1.8 4 1.8 8.4 0 1.5-.1 3.2 0 1.7-.4 3.9zm10.3-18.9q-4.5 0-7.4 2.6-2.9 2.6-2.9 7.5h20.2q0-4.7-2.8-7.4-2.7-2.7-7.1-2.7zM1122.364 172.698q-.5-3.2-2.7-5.2-2.1-2-6.8-2-2.7 0-4.8 1-2 1-3.3 2.7-1.3 1.7-2 4-.6 2.2-.6 4.7t.6 4.8q.7 2.2 2 3.9 1.4 1.7 3.5 2.7 2.2 1 5.2 1 4 0 6-1.6 2-1.7 3-4.8h15.3q-.6 4.1-2.4 7.7-1.8 3.5-4.9 6.1-3.1 2.6-7.6 4.1-4.4 1.5-10.1 1.5-6.3 0-11.2-2.1-4.8-2.1-8.1-5.6-3.3-3.5-5-8.1-1.6-4.6-1.6-9.6t1.6-9.6q1.7-4.6 5-8.1t8.1-5.6q4.9-2.1 11.2-2.1 6.1 0 10.6 1.7t7.5 4.5q3.1 2.8 4.7 6.5 1.7 3.6 2.1 7.5zM1175.586 201.998q-1.7.3-4.3.5-2.5.3-5.9.3-2.7 0-5.7-.4t-5.6-2q-2.5-1.7-4.2-5.1-1.6-3.5-1.6-9.5v-20.6h-7.6v-11.4h7.6v-14.3h15.2v14.3h11v11.4h-11v17.2q0 2.7.5 4.3.5 1.6 1.4 2.5.9.8 2.1 1.1 1.2.3 2.6.3h2.9q1.5-.1 2.6-.3zM1207.067 173.598q3.2.9 6 2 2.8 1 4.9 2.6 2.1 1.5 3.3 3.8 1.3 2.3 1.3 5.8 0 4.3-1.7 7.3-1.7 2.9-4.7 4.8-3 1.8-7 2.6-3.9.8-8.4.8-10.3 0-16.3-4.5-5.9-4.5-5.9-12.9h15q0 3.8 2.1 5.5 2.2 1.6 5.6 1.6 2.8 0 4.5-1 1.8-1.1 1.8-3.5 0-1.4-.8-2.2-.7-.9-2.3-1.6-1.5-.8-4-1.5-2.4-.8-5.8-1.9-3-.9-5.7-1.9-2.7-1.1-4.8-2.6-2-1.5-3.2-3.8-1.2-2.3-1.2-5.8 0-7.5 5.7-11.1 5.8-3.6 15.6-3.6 5.2 0 9.1 1.3 4 1.2 6.5 3.4 2.6 2.2 3.9 5.2 1.3 3 1.3 6.4h-15.1q0-3-1.6-4.6-1.5-1.7-4.7-1.7-2.3 0-4 1.1-1.7 1-1.7 3.2 0 1.3.8 2.2.8.8 2.3 1.5 1.6.7 3.9 1.4t5.3 1.7zM1228.267 192.898q0-2.1.8-3.9.8-1.8 2.1-3.1 1.4-1.4 3.2-2.2 1.9-.8 4-.8t3.9.8q1.9.8 3.2 2.2 1.4 1.3 2.2 3.1.8 1.8.8 3.9 0 2.1-.8 3.9-.8 1.8-2.2 3.2-1.3 1.3-3.2 2.1-1.8.8-3.9.8-2.1 0-4-.8-1.8-.8-3.2-2.1-1.3-1.4-2.1-3.2-.8-1.8-.8-3.9z"/>
    </g>
  </g>
</svg>
