<svg xmlns="http://www.w3.org/2000/svg" xmlns:xlink="http://www.w3.org/1999/xlink" width="327.412" height="274.946" viewBox="0 0 327.412 274.946">
  <defs>
    <linearGradient id="linearGradient-1" x1="21.992" x2="149.777" y1="405.769" y2="419.77" gradientTransform="scale(1.69959 .58838)" gradientUnits="userSpaceOnUse">
      <stop offset="0%" stop-color="#B66ED4"/>
      <stop offset="100%" stop-color="#FFDD3D"/>
      <stop offset="100%" stop-color="#FFDD3D"/>
    </linearGradient>
    <linearGradient id="lg160" x1="21.992" x2="149.777" y1="405.769" y2="419.77" gradientTransform="scale(1.69959 .58838)" gradientUnits="userSpaceOnUse" xlink:href="#linearGradient-1"/>
    <linearGradient id="lg162" x1="21.992" x2="149.777" y1="405.769" y2="419.77" gradientTransform="scale(1.69959 .58838)" gradientUnits="userSpaceOnUse" xlink:href="#linearGradient-1"/>
    <linearGradient id="lg164" x1="21.992" x2="149.777" y1="405.769" y2="419.77" gradientTransform="scale(1.69959 .58838)" gradientUnits="userSpaceOnUse" xlink:href="#linearGradient-1"/>
    <linearGradient id="lg166" x1="21.992" x2="149.777" y1="405.769" y2="419.77" gradientTransform="scale(1.69959 .58838)" gradientUnits="userSpaceOnUse" xlink:href="#linearGradient-1"/>
    <linearGradient id="lg168" x1="21.992" x2="149.777" y1="405.769" y2="419.77" gradientTransform="scale(1.69959 .58838)" gradientUnits="userSpaceOnUse" xlink:href="#linearGradient-1"/>
    <linearGradient id="lg170" x1="21.992" x2="149.777" y1="405.769" y2="419.77" gradientTransform="scale(1.69959 .58838)" gradientUnits="userSpaceOnUse" xlink:href="#linearGradient-1"/>
    <linearGradient id="lg172" x1="21.992" x2="149.777" y1="405.769" y2="419.77" gradientTransform="scale(1.69959 .58838)" gradientUnits="userSpaceOnUse" xlink:href="#linearGradient-1"/>
    <linearGradient id="lg174" x1="21.992" x2="149.777" y1="405.769" y2="419.77" gradientTransform="scale(1.69959 .58838)" gradientUnits="userSpaceOnUse" xlink:href="#linearGradient-1"/>
    <linearGradient id="lg176" x1="21.992" x2="149.777" y1="405.769" y2="419.77" gradientTransform="scale(1.69959 .58838)" gradientUnits="userSpaceOnUse" xlink:href="#linearGradient-1"/>
    <linearGradient id="lg178" x1="21.992" x2="149.777" y1="405.769" y2="419.77" gradientTransform="scale(1.69959 .58838)" gradientUnits="userSpaceOnUse" xlink:href="#linearGradient-1"/>
    <linearGradient id="lg180" x1="21.992" x2="149.777" y1="405.769" y2="419.77" gradientTransform="scale(1.69959 .58838)" gradientUnits="userSpaceOnUse" xlink:href="#linearGradient-1"/>
    <linearGradient id="lg182" x1="21.992" x2="149.777" y1="405.769" y2="419.77" gradientTransform="scale(1.69959 .58838)" gradientUnits="userSpaceOnUse" xlink:href="#linearGradient-1"/>
    <linearGradient id="lg184" x1="21.992" x2="149.777" y1="405.769" y2="419.77" gradientTransform="scale(1.69959 .58838)" gradientUnits="userSpaceOnUse" xlink:href="#linearGradient-1"/>
    <linearGradient id="lg186" x1="21.992" x2="149.777" y1="405.769" y2="419.77" gradientTransform="scale(1.69959 .58838)" gradientUnits="userSpaceOnUse" xlink:href="#linearGradient-1"/>
    <linearGradient id="lg188" x1="21.992" x2="149.777" y1="405.769" y2="419.77" gradientTransform="scale(1.69959 .58838)" gradientUnits="userSpaceOnUse" xlink:href="#linearGradient-1"/>
    <linearGradient id="lg190" x1="21.992" x2="149.777" y1="405.769" y2="419.77" gradientTransform="scale(1.69959 .58838)" gradientUnits="userSpaceOnUse" xlink:href="#linearGradient-1"/>
    <linearGradient id="lg192" x1="21.992" x2="149.777" y1="405.769" y2="419.77" gradientTransform="scale(1.69959 .58838)" gradientUnits="userSpaceOnUse" xlink:href="#linearGradient-1"/>
    <linearGradient id="lg194" x1="21.992" x2="149.777" y1="405.769" y2="419.77" gradientTransform="scale(1.69959 .58838)" gradientUnits="userSpaceOnUse" xlink:href="#linearGradient-1"/>
  </defs>
  <g fill="none" fill-rule="evenodd">
    <g fill="url(#lg194)" fill-rule="nonzero" transform="translate(-4.505 -12.6)">
      <path fill="url(#lg160)" d="M49.894 227h-7.518l5.418-11.046L37.378 197.6h7.938l6.258 11.55 5.376-11.55h7.518z"/>
      <path fill="url(#lg162)" d="M71.409 227.546q-2.604 0-4.704-.84-2.058-.882-3.528-2.31-1.428-1.47-2.226-3.402-.756-1.932-.756-4.116 0-2.184.756-4.116.798-1.932 2.226-3.36 1.47-1.47 3.528-2.31 2.1-.882 4.704-.882 2.646 0 4.704.882 2.1.84 3.528 2.31 1.47 1.428 2.226 3.36.798 1.932.798 4.116 0 2.184-.798 4.116-.756 1.932-2.226 3.402-1.428 1.428-3.528 2.31-2.058.84-4.704.84zm0-5.502q1.092 0 1.974-.378.924-.42 1.554-1.134t.966-1.638q.378-.924.378-2.016 0-1.05-.378-1.974-.336-.966-.966-1.638-.63-.714-1.554-1.134-.882-.42-1.974-.42t-1.974.42q-.882.42-1.512 1.134-.63.672-.966 1.638-.336.924-.336 1.974 0 1.092.336 2.016.336.924.966 1.638.63.714 1.512 1.134.882.378 1.974.378z"/>
      <path fill="url(#lg164)" d="M105.798 206.756V227h-6.426v-2.898q-.84 1.596-2.562 2.52-1.68.882-4.074.882-1.974 0-3.402-.588-1.428-.63-2.268-1.722-.966-1.176-1.26-2.688-.294-1.554-.294-3.738v-12.012h6.384v10.374q0 2.184.756 3.57.798 1.344 2.814 1.344t2.94-1.386q.966-1.386.966-3.738v-10.164z"/>
      <path fill="url(#lg166)" d="M124.808 212.594q-.672-.168-1.134-.21-.462-.084-1.134-.084-2.646 0-4.242 1.554t-1.596 5.25V227h-6.426v-20.244h6.426v3.276q.714-1.428 2.352-2.52 1.68-1.092 3.822-1.092 1.134 0 1.932.336z"/>
      <path fill="url(#lg168)" d="M137.046 215.072q1.344.378 2.52.84 1.176.42 2.058 1.092.882.63 1.386 1.596.546.966.546 2.436 0 1.806-.714 3.066-.714 1.218-1.974 2.016-1.26.756-2.94 1.092-1.638.336-3.528.336-4.326 0-6.846-1.89-2.478-1.89-2.478-5.418h6.3q0 1.596.882 2.31.924.672 2.352.672 1.176 0 1.89-.42.756-.462.756-1.47 0-.588-.336-.924-.294-.378-.966-.672-.63-.336-1.68-.63-1.008-.336-2.436-.798-1.26-.378-2.394-.798-1.134-.462-2.016-1.092-.84-.63-1.344-1.596-.504-.966-.504-2.436 0-3.15 2.394-4.662 2.436-1.512 6.552-1.512 2.184 0 3.822.546 1.68.504 2.73 1.428 1.092.924 1.638 2.184.546 1.26.546 2.688h-6.342q0-1.26-.672-1.932-.63-.714-1.974-.714-.966 0-1.68.462-.714.42-.714 1.344 0 .546.336.924.336.336.966.63.672.294 1.638.588.966.294 2.226.714z"/>
      <path fill="url(#lg170)" d="M181.454 227v-10.92q0-2.058-.756-3.192-.714-1.176-2.352-1.176-.714 0-1.344.252-.63.252-1.092.84-.462.588-.714 1.596-.252.966-.252 2.436V227h-6.216v-10.962q0-2.058-.714-3.192-.714-1.134-2.31-1.134-.756 0-1.386.252-.63.252-1.092.882-.462.588-.756 1.596-.252 1.008-.252 2.52V227h-6.216v-20.244h6.216v2.94q.672-1.428 2.184-2.436t3.654-1.008q2.646 0 4.074 1.05t2.058 2.604q.798-1.596 2.436-2.604 1.638-1.05 3.906-1.05 2.184 0 3.57.714 1.386.672 2.184 1.848.798 1.134 1.05 2.646.294 1.47.294 3.066V227z"/>
      <path fill="url(#lg172)" d="M201.87 222.044q1.093 0 1.975-.42.882-.42 1.512-1.092.63-.714.966-1.638.378-.966.378-2.016t-.378-1.974q-.336-.924-.966-1.638-.63-.714-1.512-1.134-.882-.42-1.974-.42t-1.974.42q-.882.42-1.512 1.134t-1.008 1.638q-.336.924-.336 1.974 0 1.05.336 2.016.378.924 1.008 1.638.63.672 1.512 1.092.882.42 1.974.42zm11.257-15.288V227H206.7v-2.856q-.378.714-1.008 1.344-.63.588-1.47 1.05-.798.42-1.764.672-.966.294-1.932.294-2.184 0-4.032-.798-1.806-.84-3.108-2.226-1.302-1.428-2.016-3.36-.714-1.974-.714-4.242t.714-4.2q.714-1.974 2.016-3.36 1.302-1.428 3.108-2.226 1.848-.84 4.032-.84.966 0 1.932.294.966.252 1.764.714.84.462 1.47 1.092.63.63 1.008 1.302v-2.898z"/>
      <path fill="url(#lg174)" d="M227.573 236.702q-2.478 0-4.326-.504-1.806-.504-3.15-1.596-1.218-1.008-2.016-2.52-.756-1.47-.756-3.528h6.426q.084 1.722 1.176 2.604 1.134.924 2.73.924 1.848 0 2.898-.924 1.05-.882 1.05-3.234v-4.158q-.84 1.638-2.52 2.52-1.638.882-3.948.882-2.016 0-3.528-.672-1.47-.672-2.31-1.764-.966-1.176-1.26-2.604-.294-1.47-.294-3.654v-11.718h6.384v10.374q0 2.184.756 3.57.798 1.344 2.814 1.344t2.94-1.386q.966-1.386.966-3.738v-10.164h6.426v20.748q0 2.394-.756 4.158-.756 1.764-2.058 2.856-1.344 1.134-3.192 1.638-1.806.546-4.452.546z"/>
      <path fill="url(#lg176)" d="M258.014 227h-6.426v-29.4h6.426v12.054q.378-.672 1.008-1.302t1.47-1.092q.84-.462 1.764-.714.966-.294 1.974-.294 2.184 0 3.99.84 1.848.798 3.15 2.226 1.302 1.386 2.016 3.36.714 1.932.714 4.2 0 2.268-.714 4.242-.714 1.932-2.016 3.36-1.302 1.386-3.15 2.226-1.806.798-3.99.798-1.008 0-1.974-.294-.924-.252-1.764-.672-.84-.462-1.47-1.05-.63-.63-1.008-1.344zm4.872-4.956q1.05 0 1.932-.42.882-.42 1.512-1.092.63-.714.966-1.638.378-.966.378-2.016t-.378-1.974q-.336-.924-.966-1.638-.63-.714-1.512-1.134-.882-.42-1.932-.42-1.092 0-2.016.42-.882.42-1.512 1.134t-1.008 1.638q-.336.924-.336 1.974 0 1.05.336 2.016.378.924 1.008 1.638.63.672 1.512 1.092.924.42 2.016.42z"/>
      <path fill="url(#lg178)" d="M282.413 218.432q.042.924.252 1.764.252.798.756 1.428.546.588 1.386.966.84.336 2.1.336 1.68 0 2.52-.672.882-.672 1.218-1.638h6.3q-.21 1.428-1.008 2.688-.756 1.26-2.058 2.226-1.26.924-3.024 1.47-1.722.546-3.906.546-2.646 0-4.704-.756-2.016-.798-3.402-2.226-1.386-1.428-2.1-3.36-.714-1.974-.714-4.326 0-2.226.672-4.158.714-1.932 2.058-3.36 1.386-1.47 3.36-2.31 2.016-.84 4.662-.84 2.394 0 4.284.756 1.932.756 3.276 2.016 1.386 1.26 2.1 2.94.756 1.68.756 3.528 0 .63-.042 1.344 0 .714-.168 1.638zm4.326-7.938q-1.89 0-3.108 1.092-1.218 1.092-1.218 3.15h8.484q0-1.974-1.176-3.108-1.134-1.134-2.982-1.134z"/>
      <path fill="url(#lg180)" d="M105.581 287q-.714.126-1.806.21-1.05.126-2.478.126-1.134 0-2.394-.168-1.26-.168-2.352-.84-1.05-.714-1.764-2.142-.672-1.47-.672-3.99v-8.652h-3.192v-4.788h3.192v-6.006h6.384v6.006h4.62v4.788h-4.62v7.224q0 1.134.21 1.806.21.672.588 1.05.378.336.882.462t1.092.126h1.218q.63-.042 1.092-.126z"/>
      <path fill="url(#lg182)" d="M108.017 257.6h6.216v12.096q.84-1.596 2.52-2.52 1.68-.924 4.032-.924 1.974 0 3.318.63 1.344.588 2.184 1.68.966 1.176 1.302 2.73.336 1.554.336 3.738V287h-6.216v-10.374q0-2.184-.798-3.528-.756-1.386-2.772-1.386-1.974 0-2.94 1.386t-.966 3.738V287h-6.216z"/>
      <path fill="url(#lg184)" d="M137.2 278.432q.043.924.253 1.764.252.798.756 1.428.546.588 1.386.966.84.336 2.1.336 1.68 0 2.52-.672.882-.672 1.218-1.638h6.3q-.21 1.428-1.008 2.688-.756 1.26-2.058 2.226-1.26.924-3.024 1.47-1.722.546-3.906.546-2.646 0-4.704-.756-2.016-.798-3.402-2.226-1.386-1.428-2.1-3.36-.714-1.974-.714-4.326 0-2.226.672-4.158.714-1.932 2.058-3.36 1.386-1.47 3.36-2.31 2.016-.84 4.662-.84 2.394 0 4.284.756 1.932.756 3.276 2.016 1.386 1.26 2.1 2.94.756 1.68.756 3.528 0 .63-.042 1.344 0 .714-.168 1.638zm4.327-7.938q-1.89 0-3.108 1.092-1.218 1.092-1.218 3.15h8.484q0-1.974-1.176-3.108-1.134-1.134-2.982-1.134z"/>
      <path fill="url(#lg186)" d="M164.49 266.756h6.426v2.94q.84-1.638 2.52-2.52 1.722-.924 4.116-.924 1.974 0 3.402.63 1.428.588 2.268 1.68.966 1.176 1.26 2.73.336 1.512.336 3.696V287h-6.426v-10.374q0-2.184-.798-3.528-.756-1.386-2.772-1.386-1.974 0-2.94 1.386t-.966 3.738V287h-6.426z"/>
      <path fill="url(#lg188)" d="M194.083 278.432q.042.924.252 1.764.252.798.756 1.428.546.588 1.386.966.84.336 2.1.336 1.68 0 2.52-.672.882-.672 1.218-1.638h6.3q-.21 1.428-1.008 2.688-.756 1.26-2.058 2.226-1.26.924-3.024 1.47-1.722.546-3.906.546-2.646 0-4.704-.756-2.016-.798-3.402-2.226-1.386-1.428-2.1-3.36-.714-1.974-.714-4.326 0-2.226.672-4.158.714-1.932 2.058-3.36 1.386-1.47 3.36-2.31 2.017-.84 4.663-.84 2.394 0 4.284.756 1.932.756 3.276 2.016 1.386 1.26 2.1 2.94.756 1.68.756 3.528 0 .63-.042 1.344 0 .714-.168 1.638zm4.326-7.938q-1.89 0-3.108 1.092-1.218 1.092-1.218 3.15h8.484q0-1.974-1.176-3.108-1.133-1.134-2.981-1.134z"/>
      <path fill="url(#lg190)" d="M230.607 287h-7.434l-3.318-5.88-3.318 5.88h-7.434l6.972-10.206-6.846-10.038h7.434l3.192 5.712 3.192-5.712h7.434l-6.804 10.038z"/>
      <path fill="url(#lg192)" d="M245.007 287q-.714.126-1.806.21-1.05.126-2.478.126-1.134 0-2.394-.168-1.26-.168-2.352-.84-1.05-.714-1.764-2.142-.672-1.47-.672-3.99v-8.652h-3.192v-4.788h3.192v-6.006h6.384v6.006h4.62v4.788h-4.62v7.224q0 1.134.21 1.806.21.672.588 1.05.378.336.882.462t1.092.126h1.218q.63-.042 1.092-.126z"/>
    </g>
    <g fill="#fff">
      <path d="M6.804 5.46v6.678h11.13v5.334H6.804v6.468h11.13v5.46H0V0h17.934v5.46zM25.709 9.156l4.914 12.726 4.956-12.726h6.72L33.143 29.4h-5.124l-9.03-20.244zM47.787 20.832q.042.924.252 1.764.252.798.756 1.428.546.588 1.386.966.84.336 2.1.336 1.68 0 2.52-.672.882-.672 1.218-1.638h6.3q-.21 1.428-1.008 2.688-.756 1.26-2.058 2.226-1.26.924-3.024 1.47-1.722.546-3.906.546-2.646 0-4.704-.756-2.016-.798-3.402-2.226-1.386-1.428-2.1-3.36-.714-1.974-.714-4.326 0-2.226.672-4.158.714-1.932 2.058-3.36 1.386-1.47 3.36-2.31 2.016-.84 4.662-.84 2.394 0 4.284.756 1.932.756 3.276 2.016 1.386 1.26 2.1 2.94.756 1.68.756 3.528 0 .63-.042 1.344 0 .714-.168 1.638zm4.326-7.938q-1.89 0-3.108 1.092-1.218 1.092-1.218 3.15h8.484q0-1.974-1.176-3.108-1.134-1.134-2.982-1.134zM80.436 14.994q-.672-.168-1.134-.21-.462-.084-1.134-.084-2.646 0-4.242 1.554t-1.596 5.25V29.4h-6.425V9.156h6.426v3.276q.714-1.428 2.352-2.52 1.68-1.092 3.822-1.092 1.134 0 1.932.336zM92.455 39.102q-2.478 0-4.326-.504-1.806-.504-3.15-1.596-1.218-1.008-2.016-2.52-.756-1.47-.756-3.528h6.426q.084 1.722 1.176 2.604 1.134.924 2.73.924 1.848 0 2.898-.924 1.05-.882 1.05-3.234v-4.158q-.84 1.638-2.52 2.52-1.638.882-3.948.882-2.016 0-3.528-.672-1.47-.672-2.31-1.764-.966-1.176-1.26-2.604-.294-1.47-.294-3.654V9.156h6.384V19.53q0 2.184.756 3.57.798 1.344 2.814 1.344t2.94-1.386q.966-1.386.966-3.738V9.156h6.426v20.748q0 2.394-.756 4.158-.756 1.764-2.058 2.856-1.344 1.134-3.192 1.638-1.806.546-4.452.546zM117.253 24.444q1.092 0 1.974-.42.882-.42 1.512-1.092.63-.714.966-1.638.378-.966.378-2.016t-.378-1.974q-.336-.924-.966-1.638-.63-.714-1.512-1.134-.882-.42-1.974-.42t-1.974.42q-.882.42-1.512 1.134t-1.008 1.638q-.336.924-.336 1.974 0 1.05.336 2.016.378.924 1.008 1.638.63.672 1.512 1.092.882.42 1.974.42zm4.83 2.1q-.378.714-1.008 1.344-.63.588-1.47 1.05-.798.42-1.764.672-.966.294-1.932.294-2.184 0-4.032-.798-1.806-.84-3.108-2.226-1.302-1.428-2.016-3.36-.714-1.974-.714-4.242t.714-4.2q.714-1.974 2.016-3.36 1.302-1.428 3.108-2.226 1.848-.84 4.032-.84.966 0 1.932.294.966.252 1.764.714.84.462 1.47 1.092.63.63 1.008 1.302V0h6.426v29.4h-6.426zM142.913 24.444q1.092 0 1.974-.42.882-.42 1.512-1.092.63-.714.966-1.638.378-.966.378-2.016t-.378-1.974q-.336-.924-.966-1.638-.63-.714-1.512-1.134-.882-.42-1.974-.42t-1.974.42q-.882.42-1.512 1.134t-1.008 1.638q-.336.924-.336 1.974 0 1.05.336 2.016.378.924 1.008 1.638.63.672 1.512 1.092.882.42 1.974.42zm11.256-15.288V29.4h-6.426v-2.856q-.378.714-1.008 1.344-.63.588-1.47 1.05-.798.42-1.764.672-.966.294-1.932.294-2.184 0-4.032-.798-1.806-.84-3.108-2.226-1.302-1.428-2.016-3.36-.714-1.974-.714-4.242t.714-4.2q.714-1.974 2.016-3.36 1.302-1.428 3.108-2.226 1.848-.84 4.032-.84.966 0 1.932.294.966.252 1.764.714.84.462 1.47 1.092.63.63 1.008 1.302V9.156zM168.615 39.102q-2.478 0-4.326-.504-1.806-.504-3.15-1.596-1.218-1.008-2.016-2.52-.756-1.47-.756-3.528h6.426q.084 1.722 1.176 2.604 1.134.924 2.73.924 1.848 0 2.898-.924 1.05-.882 1.05-3.234v-4.158q-.84 1.638-2.52 2.52-1.638.882-3.948.882-2.016 0-3.528-.672-1.47-.672-2.31-1.764-.966-1.176-1.26-2.604-.294-1.47-.294-3.654V9.156h6.384V19.53q0 2.184.756 3.57.798 1.344 2.814 1.344t2.94-1.386q.966-1.386.966-3.738V9.156h6.426v20.748q0 2.394-.756 4.158-.756 1.764-2.058 2.856-1.344 1.134-3.192 1.638-1.806.546-4.452.546zM209.683 17.724h-10.164V29.4h-6.804V0h6.804v11.886h10.164V0h6.762v29.4h-6.762zM241.032 9.156V29.4h-6.426v-2.898q-.84 1.596-2.562 2.52-1.68.882-4.074.882-1.974 0-3.402-.588-1.428-.63-2.268-1.722-.966-1.176-1.26-2.688-.294-1.554-.294-3.738V9.156h6.384V19.53q0 2.184.756 3.57.798 1.344 2.814 1.344t2.94-1.386q.966-1.386.966-3.738V9.156zM270.962 29.4V18.48q0-2.058-.756-3.192-.714-1.176-2.352-1.176-.714 0-1.344.252-.63.252-1.092.84-.462.588-.714 1.596-.252.966-.252 2.436V29.4h-6.216V18.438q0-2.058-.714-3.192-.714-1.134-2.31-1.134-.756 0-1.386.252-.63.252-1.092.882-.462.588-.756 1.596-.252 1.008-.252 2.52V29.4h-6.216V9.156h6.216v2.94q.672-1.428 2.184-2.436t3.654-1.008q2.646 0 4.074 1.05t2.058 2.604q.798-1.596 2.436-2.604 1.638-1.05 3.906-1.05 2.184 0 3.57.714 1.386.672 2.184 1.848.798 1.134 1.05 2.646.294 1.47.294 3.066V29.4zM291.378 24.444q1.092 0 1.974-.42.882-.42 1.512-1.092.63-.714.966-1.638.378-.966.378-2.016t-.378-1.974q-.336-.924-.966-1.638-.63-.714-1.512-1.134-.882-.42-1.974-.42t-1.974.42q-.882.42-1.512 1.134t-1.008 1.638q-.336.924-.336 1.974 0 1.05.336 2.016.378.924 1.008 1.638.63.672 1.512 1.092.882.42 1.974.42zm11.256-15.288V29.4h-6.426v-2.856q-.378.714-1.008 1.344-.63.588-1.47 1.05-.798.42-1.764.672-.966.294-1.932.294-2.184 0-4.032-.798-1.806-.84-3.108-2.226-1.302-1.428-2.016-3.36-.714-1.974-.714-4.242t.714-4.2q.714-1.974 2.016-3.36 1.302-1.428 3.108-2.226 1.848-.84 4.032-.84.966 0 1.932.294.966.252 1.764.714.84.462 1.47 1.092.63.63 1.008 1.302V9.156zM307.084 9.156h6.426v2.94q.84-1.638 2.52-2.52 1.722-.924 4.116-.924 1.974 0 3.402.63 1.428.588 2.268 1.68.966 1.176 1.26 2.73.336 1.512.336 3.696V29.4h-6.426V19.026q0-2.184-.798-3.528-.756-1.386-2.772-1.386-1.974 0-2.94 1.386t-.966 3.738V29.4h-6.426zM51.928 62.436q0-1.722 1.176-2.898 1.176-1.176 2.94-1.176.882 0 1.638.336.756.294 1.302.84.588.546.882 1.302.336.756.336 1.596 0 .84-.336 1.596-.294.714-.882 1.302-.546.546-1.302.882-.756.294-1.638.294-.882 0-1.638-.294-.714-.336-1.302-.882-.546-.588-.882-1.302-.294-.756-.294-1.596zm.924 6.72h6.426V89.4h-6.426zM89.199 89.4V78.48q0-2.058-.756-3.192-.714-1.176-2.352-1.176-.714 0-1.344.252-.63.252-1.092.84-.462.588-.714 1.596-.252.966-.252 2.436V89.4h-6.216V78.438q0-2.058-.714-3.192-.714-1.134-2.31-1.134-.756 0-1.386.252-.63.252-1.092.882-.462.588-.756 1.596-.252 1.008-.252 2.52V89.4h-6.216V69.156h6.216v2.94q.672-1.428 2.184-2.436t3.654-1.008q2.646 0 4.074 1.05t2.058 2.604q.798-1.596 2.436-2.604 1.638-1.05 3.906-1.05 2.184 0 3.57.714 1.386.672 2.184 1.848.798 1.134 1.05 2.646.294 1.47.294 3.066V89.4zM110.959 74.112q-1.092 0-2.016.42-.882.42-1.512 1.134-.63.672-1.008 1.638-.336.924-.336 1.974 0 1.05.336 2.016.378.924 1.008 1.638.63.672 1.512 1.092.924.42 2.016.42 1.05 0 1.932-.42.882-.42 1.512-1.092.63-.714.966-1.638.378-.966.378-2.016t-.378-1.974q-.336-.966-.966-1.638-.63-.714-1.512-1.134-.882-.42-1.932-.42zm-4.872-2.058q.378-.672 1.008-1.302t1.47-1.092q.84-.462 1.764-.714.966-.294 1.974-.294 2.184 0 3.99.84 1.848.798 3.15 2.226 1.302 1.386 2.016 3.36.714 1.932.714 4.2 0 2.268-.714 4.242-.714 1.932-2.016 3.36-1.302 1.386-3.15 2.226-1.806.798-3.99.798-1.008 0-1.974-.294-.924-.252-1.764-.714-.84-.462-1.47-1.05-.63-.63-1.008-1.344v12.054h-6.426v-29.4h6.426zM125.403 60h6.426v29.4h-6.426zM141.379 80.832q.042.924.252 1.764.252.798.756 1.428.546.588 1.386.966.84.336 2.1.336 1.68 0 2.52-.672.882-.672 1.218-1.638h6.3q-.21 1.428-1.008 2.688-.756 1.26-2.058 2.226-1.26.924-3.024 1.47-1.722.546-3.906.546-2.646 0-4.704-.756-2.016-.798-3.402-2.226-1.386-1.428-2.1-3.36-.714-1.974-.714-4.326 0-2.226.672-4.158.714-1.932 2.058-3.36 1.386-1.47 3.36-2.31 2.016-.84 4.662-.84 2.394 0 4.284.756 1.932.756 3.276 2.016 1.386 1.26 2.1 2.94.756 1.68.756 3.528 0 .63-.042 1.344 0 .714-.168 1.638zm4.326-7.938q-1.89 0-3.108 1.092-1.218 1.092-1.218 3.15h8.484q0-1.974-1.176-3.108-1.134-1.134-2.982-1.134zM184.949 89.4V78.48q0-2.058-.756-3.192-.714-1.176-2.352-1.176-.714 0-1.344.252-.63.252-1.092.84-.462.588-.714 1.596-.252.966-.252 2.436V89.4h-6.216V78.438q0-2.058-.714-3.192-.714-1.134-2.31-1.134-.756 0-1.386.252-.63.252-1.092.882-.462.588-.756 1.596-.252 1.008-.252 2.52V89.4h-6.216V69.156h6.216v2.94q.672-1.428 2.184-2.436t3.654-1.008q2.646 0 4.074 1.05t2.058 2.604q.798-1.596 2.436-2.604 1.638-1.05 3.906-1.05 2.184 0 3.57.714 1.386.672 2.184 1.848.798 1.134 1.05 2.646.294 1.47.294 3.066V89.4zM200.493 80.832q.042.924.252 1.764.252.798.756 1.428.546.588 1.386.966.84.336 2.1.336 1.68 0 2.52-.672.882-.672 1.218-1.638h6.3q-.21 1.428-1.008 2.688-.756 1.26-2.058 2.226-1.26.924-3.024 1.47-1.722.546-3.906.546-2.646 0-4.704-.756-2.016-.798-3.402-2.226-1.386-1.428-2.1-3.36-.714-1.974-.714-4.326 0-2.226.672-4.158.714-1.932 2.058-3.36 1.386-1.47 3.36-2.31 2.016-.84 4.662-.84 2.394 0 4.284.756 1.932.756 3.276 2.016 1.386 1.26 2.1 2.94.756 1.68.756 3.528 0 .63-.042 1.344 0 .714-.168 1.638zm4.326-7.938q-1.89 0-3.108 1.092-1.218 1.092-1.218 3.15h8.484q0-1.974-1.176-3.108-1.134-1.134-2.982-1.134zM218.61 69.156h6.426v2.94q.84-1.638 2.52-2.52 1.722-.924 4.116-.924 1.974 0 3.402.63 1.428.588 2.268 1.68.966 1.176 1.26 2.73.336 1.512.336 3.696V89.4h-6.426V79.026q0-2.184-.798-3.528-.756-1.386-2.772-1.386-1.974 0-2.94 1.386t-.966 3.738V89.4h-6.426zM255.764 89.4q-.714.126-1.806.21-1.05.126-2.478.126-1.134 0-2.394-.168-1.26-.168-2.352-.84-1.05-.714-1.764-2.142-.672-1.47-.672-3.99v-8.652h-3.192v-4.788h3.192V63.15h6.384v6.006h4.62v4.788h-4.62v7.224q0 1.134.21 1.806.21.672.588 1.05.378.336.882.462t1.092.126h1.218q.63-.042 1.092-.126zM268.825 77.472q1.345.378 2.52.84 1.177.42 2.059 1.092.882.63 1.386 1.596.546.966.546 2.436 0 1.806-.714 3.066-.714 1.218-1.974 2.016-1.26.756-2.94 1.092-1.638.336-3.528.336-4.326 0-6.846-1.89-2.478-1.89-2.478-5.418h6.3q0 1.596.882 2.31.924.672 2.352.672 1.176 0 1.89-.42.756-.462.756-1.47 0-.588-.336-.924-.294-.378-.966-.672-.63-.336-1.68-.63-1.008-.336-2.436-.798-1.26-.378-2.394-.798-1.134-.462-2.016-1.092-.84-.63-1.344-1.596-.504-.966-.504-2.436 0-3.15 2.394-4.662 2.436-1.512 6.552-1.512 2.184 0 3.822.546 1.68.504 2.73 1.428 1.092.924 1.638 2.184.546 1.26.546 2.688H268.7q0-1.26-.672-1.932-.63-.714-1.974-.714-.966 0-1.68.462-.714.42-.714 1.344 0 .546.336.924.336.336.966.63.672.294 1.638.588.966.294 2.226.714zM33.554 134.112q-1.092 0-1.974.42-.882.42-1.512 1.134t-.966 1.638q-.336.924-.336 1.974 0 1.05.336 2.016.336.924.966 1.638.63.672 1.512 1.092.882.42 1.974.42t1.974-.42q.924-.42 1.554-1.092.63-.714.966-1.638.378-.966.378-2.016t-.378-1.974q-.336-.924-.966-1.638-.63-.714-1.554-1.134-.882-.42-1.974-.42zm11.298 15.162q0 2.772-.798 4.578-.798 1.848-2.394 3.066-1.428 1.092-3.402 1.638-1.974.546-4.788.546-2.856 0-4.788-.63-1.89-.63-3.15-1.722-1.344-1.134-2.1-2.646-.756-1.47-.84-3.15h6.426q.126 1.302 1.218 2.352 1.134 1.05 3.234 1.05 2.268 0 3.612-1.092 1.344-1.092 1.344-3.486v-3.402q-.84 1.386-2.52 2.268-1.68.882-3.654.882-2.184 0-4.032-.756-1.806-.756-3.108-2.1-1.302-1.386-2.058-3.234-.714-1.89-.714-4.158 0-2.268.672-4.2.714-1.974 2.016-3.36 1.302-1.428 3.108-2.226 1.806-.84 4.032-.84 1.932 0 3.654.924 1.764.882 2.604 2.478v-2.898h6.426zM63.71 134.994q-.672-.168-1.134-.21-.462-.084-1.134-.084-2.646 0-4.242 1.554t-1.596 5.25v7.896h-6.426v-20.244h6.426v3.276q.714-1.428 2.352-2.52 1.68-1.092 3.822-1.092 1.134 0 1.932.336zM70.405 140.832q.042.924.252 1.764.252.798.756 1.428.546.588 1.386.966.84.336 2.1.336 1.68 0 2.52-.672.882-.672 1.218-1.638h6.3q-.21 1.428-1.008 2.688-.756 1.26-2.058 2.226-1.26.924-3.024 1.47-1.722.546-3.906.546-2.646 0-4.704-.756-2.016-.798-3.402-2.226-1.386-1.428-2.1-3.36-.714-1.974-.714-4.326 0-2.226.672-4.158.714-1.932 2.058-3.36 1.386-1.47 3.36-2.31 2.016-.84 4.662-.84 2.394 0 4.284.756 1.932.756 3.276 2.016 1.386 1.26 2.1 2.94.756 1.68.756 3.528 0 .63-.042 1.344 0 .714-.168 1.638zm4.326-7.938q-1.89 0-3.108 1.092-1.218 1.092-1.218 3.15h8.484q0-1.974-1.176-3.108-1.134-1.134-2.982-1.134zM98.475 144.444q1.093 0 1.975-.42.882-.42 1.512-1.092.63-.714.966-1.638.378-.966.378-2.016t-.378-1.974q-.336-.924-.966-1.638-.63-.714-1.512-1.134-.882-.42-1.974-.42t-1.974.42q-.882.42-1.512 1.134t-1.008 1.638q-.336.924-.336 1.974 0 1.05.336 2.016.378.924 1.008 1.638.63.672 1.512 1.092.882.42 1.974.42zm11.257-15.288V149.4h-6.426v-2.856q-.378.714-1.008 1.344-.63.588-1.47 1.05-.798.42-1.764.672-.966.294-1.932.294-2.184 0-4.032-.798-1.806-.84-3.108-2.226-1.302-1.428-2.016-3.36-.714-1.974-.714-4.242t.714-4.2q.714-1.974 2.016-3.36 1.302-1.428 3.108-2.226 1.848-.84 4.032-.84.966 0 1.932.294.966.252 1.764.714.84.462 1.47 1.092.63.63 1.008 1.302v-2.898zM126.824 149.4q-.714.126-1.806.21-1.05.126-2.478.126-1.134 0-2.394-.168-1.26-.168-2.352-.84-1.05-.714-1.764-2.142-.672-1.47-.672-3.99v-8.652h-3.192v-4.788h3.192v-6.006h6.384v6.006h4.62v4.788h-4.62v7.224q0 1.134.21 1.806.21.672.588 1.05.378.336.882.462t1.092.126h1.218q.63-.042 1.092-.126zM149.73 134.112q-1.092 0-2.016.42-.882.42-1.512 1.134-.63.672-1.008 1.638-.336.924-.336 1.974 0 1.05.336 2.016.378.924 1.008 1.638.63.672 1.512 1.092.924.42 2.016.42 1.05 0 1.932-.42.882-.42 1.512-1.092.63-.714.966-1.638.378-.966.378-2.016t-.378-1.974q-.336-.966-.966-1.638-.63-.714-1.512-1.134-.882-.42-1.932-.42zm-4.872-2.058q.378-.672 1.008-1.302t1.47-1.092q.84-.462 1.764-.714.966-.294 1.974-.294 2.184 0 3.99.84 1.848.798 3.15 2.226 1.302 1.386 2.016 3.36.714 1.932.714 4.2 0 2.268-.714 4.242-.714 1.932-2.016 3.36-1.302 1.386-3.15 2.226-1.806.798-3.99.798-1.008 0-1.974-.294-.924-.252-1.764-.714-.84-.462-1.47-1.05-.63-.63-1.008-1.344v12.054h-6.426v-29.4h6.426zM178.706 134.994q-.672-.168-1.134-.21-.462-.084-1.134-.084-2.646 0-4.242 1.554t-1.596 5.25v7.896h-6.426v-20.244h6.426v3.276q.714-1.428 2.352-2.52 1.68-1.092 3.822-1.092 1.134 0 1.932.336zM189.573 149.946q-2.604 0-4.704-.84-2.058-.882-3.528-2.31-1.428-1.47-2.226-3.402-.756-1.932-.756-4.116 0-2.184.756-4.116.798-1.932 2.226-3.36 1.47-1.47 3.528-2.31 2.1-.882 4.704-.882 2.646 0 4.704.882 2.1.84 3.528 2.31 1.47 1.428 2.226 3.36.798 1.932.798 4.116 0 2.184-.798 4.116-.756 1.932-2.226 3.402-1.428 1.428-3.528 2.31-2.058.84-4.704.84zm0-5.502q1.092 0 1.974-.378.924-.42 1.554-1.134t.966-1.638q.378-.924.378-2.016 0-1.05-.378-1.974-.336-.966-.966-1.638-.63-.714-1.554-1.134-.882-.42-1.974-.42t-1.974.42q-.882.42-1.512 1.134-.63.672-.966 1.638-.336.924-.336 1.974 0 1.092.336 2.016.336.924.966 1.638.63.714 1.512 1.134.882.378 1.974.378zM203.005 122.436q0-1.722 1.175-2.898 1.176-1.176 2.94-1.176.882 0 1.638.336.756.294 1.302.84.588.546.882 1.302.336.756.336 1.596 0 .84-.336 1.596-.294.714-.882 1.302-.546.546-1.302.882-.756.294-1.638.294-.882 0-1.638-.294-.714-.336-1.302-.882-.546-.588-.882-1.302-.294-.756-.294-1.596zm7.35 30.114q0 1.974-.463 3.234-.462 1.302-1.26 2.016-.756.714-1.806.966-1.008.294-2.184.294-1.134 0-2.31-.168-1.134-.126-1.722-.336v-4.914q.588.084.924.084.336.042.714.042 1.68 0 1.68-2.058v-22.554h6.426zM219.741 140.832q.042.924.252 1.764.252.798.756 1.428.546.588 1.386.966.84.336 2.1.336 1.68 0 2.52-.672.882-.672 1.218-1.638h6.3q-.21 1.428-1.008 2.688-.756 1.26-2.058 2.226-1.26.924-3.024 1.47-1.722.546-3.906.546-2.646 0-4.704-.756-2.016-.798-3.402-2.226-1.386-1.428-2.1-3.36-.714-1.974-.714-4.326 0-2.226.672-4.158.714-1.932 2.058-3.36 1.386-1.47 3.36-2.31 2.016-.84 4.662-.84 2.394 0 4.284.756 1.932.756 3.276 2.016 1.386 1.26 2.1 2.94.756 1.68.756 3.528 0 .63-.042 1.344 0 .714-.168 1.638zm4.326-7.938q-1.89 0-3.108 1.092-1.218 1.092-1.218 3.15h8.484q0-1.974-1.176-3.108-1.134-1.134-2.982-1.134zM251.424 137.094q-.21-1.344-1.134-2.184-.882-.84-2.856-.84-1.134 0-2.016.42-.84.42-1.386 1.134-.546.714-.84 1.68-.252.924-.252 1.974 0 1.05.252 2.016.294.924.84 1.638.588.714 1.47 1.134.924.42 2.184.42 1.68 0 2.52-.672.84-.714 1.26-2.016h6.426q-.252 1.722-1.008 3.234-.756 1.47-2.058 2.562-1.302 1.092-3.192 1.722-1.848.63-4.242.63-2.646 0-4.704-.882-2.016-.882-3.402-2.352-1.386-1.47-2.1-3.402-.672-1.932-.672-4.032t.672-4.032q.714-1.932 2.1-3.402 1.386-1.47 3.402-2.352 2.058-.882 4.704-.882 2.562 0 4.452.714 1.89.714 3.15 1.89 1.302 1.176 1.974 2.73.714 1.512.882 3.15zM273.617 149.4q-.714.126-1.806.21-1.05.126-2.478.126-1.134 0-2.394-.168-1.26-.168-2.352-.84-1.05-.714-1.764-2.142-.672-1.47-.672-3.99v-8.652h-3.192v-4.788h3.192v-6.006h6.384v6.006h4.62v4.788h-4.62v7.224q0 1.134.21 1.806.21.672.588 1.05.378.336.882.462t1.092.126h1.218q.63-.042 1.092-.126zM286.679 137.472q1.344.378 2.52.84 1.176.42 2.058 1.092.882.63 1.386 1.596.546.966.546 2.436 0 1.806-.714 3.066-.714 1.218-1.974 2.016-1.26.756-2.94 1.092-1.638.336-3.528.336-4.326 0-6.846-1.89-2.478-1.89-2.478-5.418h6.3q0 1.596.882 2.31.924.672 2.352.672 1.176 0 1.89-.42.756-.462.756-1.47 0-.588-.336-.924-.294-.378-.966-.672-.63-.336-1.68-.63-1.008-.336-2.436-.798-1.26-.378-2.394-.798-1.134-.462-2.016-1.092-.84-.63-1.344-1.596-.504-.966-.504-2.436 0-3.15 2.394-4.662 2.436-1.512 6.552-1.512 2.184 0 3.822.546 1.68.504 2.73 1.428 1.092.924 1.638 2.184.546 1.26.546 2.688h-6.342q0-1.26-.672-1.932-.63-.714-1.974-.714-.966 0-1.68.462-.714.42-.714 1.344 0 .546.336.924.336.336.966.63.672.294 1.638.588.966.294 2.226.714zM295.423 145.578q0-.882.336-1.638.336-.756.882-1.302.588-.588 1.344-.924.798-.336 1.68-.336.882 0 1.638.336.798.336 1.344.924.588.546.924 1.302.336.756.336 1.638 0 .882-.336 1.638-.336.756-.924 1.344-.546.546-1.344.882-.756.336-1.638.336-.882 0-1.68-.336-.756-.336-1.344-.882-.546-.588-.882-1.344-.336-.756-.336-1.638z"/>
    </g>
  </g>
</svg>
